<svg width="20.000000" height="19.000000" viewBox="0 0 20 19" fill="none" xmlns="http://www.w3.org/2000/svg" xmlns:xlink="http://www.w3.org/1999/xlink">
	<desc>
			Created with Pixso.
	</desc>
	<defs/>
	<path id="Vector" d="M10 2C7.87793 2 5.84375 2.84277 4.34277 4.34326C2.84277 5.84351 2 7.87817 2 10L5 10C5.53027 10 6.03906 10.2107 6.41406 10.5857C6.78906 10.9609 7 11.4695 7 12L7 17C7 17.5305 6.78906 18.0391 6.41406 18.4143C6.03906 18.7893 5.53027 19 5 19L2 19C1.46973 19 0.960938 18.7893 0.585938 18.4143C0.210938 18.0391 0 17.5305 0 17L0 10C0 4.47705 4.47656 0 10 0C15.5234 0 20 4.47705 20 10L20 17C20 17.5305 19.7891 18.0391 19.4141 18.4143C19.0391 18.7893 18.5303 19 18 19L15 19C14.4697 19 13.9609 18.7893 13.5859 18.4143C13.2109 18.0391 13 17.5305 13 17L13 12C13 11.4695 13.2109 10.9609 13.5859 10.5857C13.9609 10.2107 14.4697 10 15 10L18 10C18 7.87817 17.1572 5.84351 15.6572 4.34326C14.1562 2.84277 12.1221 2 10 2ZM2 12L2 17L5 17L5 12L2 12ZM15 12L15 17L18 17L18 12L15 12Z" fill="#242424" fill-opacity="1.000000" fill-rule="nonzero"/>
</svg>
