<svg width="18.000000" height="20.000000" viewBox="0 0 18 20" fill="none" xmlns="http://www.w3.org/2000/svg" xmlns:xlink="http://www.w3.org/1999/xlink">
	<desc>
			Created with Pixso.
	</desc>
	<defs/>
	<path id="Vector" d="M0 16.5L0 3C0 2.20435 0.316406 1.44141 0.878906 0.878662C1.44141 0.316162 2.2041 0 3 0L17 0C17.2656 0 17.5195 0.105469 17.707 0.292969C17.8945 0.480469 18 0.734863 18 1L18 19C18 19.2651 17.8945 19.5195 17.707 19.707C17.5195 19.8945 17.2656 20 17 20L3.5 20C2.57129 20 1.68164 19.6313 1.02539 18.9749C0.369141 18.3186 0 17.4282 0 16.5ZM16 18L16 15L3.5 15C3.10254 15 2.7207 15.158 2.43945 15.4395C2.1582 15.7207 2 16.1023 2 16.5C2 16.8977 2.1582 17.2793 2.43945 17.5605C2.7207 17.842 3.10254 18 3.5 18L16 18ZM7 2L3 2C2.73438 2 2.48047 2.10547 2.29297 2.29297C2.10547 2.48047 2 2.73486 2 3L2 13.3369C2.46875 13.1145 2.98145 12.9993 3.5 13L16 13L16 2L14 2L14 10L10.5 8L7 10L7 2Z" fill="#242424" fill-opacity="1.000000" fill-rule="nonzero"/>
</svg>
