<svg width="24.000000" height="24.000000" viewBox="0 0 24 24" fill="none" xmlns="http://www.w3.org/2000/svg" xmlns:xlink="http://www.w3.org/1999/xlink">
	<desc>
			Created with Pixso.
	</desc>
	<defs>
		<clipPath id="clip1028_3311">
			<rect id="book-mark-line" width="24.000000" height="24.000000" fill="white" fill-opacity="0"/>
		</clipPath>
	</defs>
	<rect id="book-mark-line" width="24.000000" height="24.000000" fill="#FFFFFF" fill-opacity="0"/>
	<g clip-path="url(#clip1028_3311)">
		<path id="Vector" d="M3 18.5L3 5C3 4.20435 3.3161 3.44141 3.87866 2.87866C4.44128 2.31616 5.20435 2 6 2L20 2C20.2652 2 20.5196 2.10547 20.7071 2.29297C20.8947 2.48047 21 2.73486 21 3L21 21C21 21.2651 20.8947 21.5195 20.7071 21.707C20.5196 21.8945 20.2652 22 20 22L6.5 22C5.57172 22 4.68152 21.6313 4.02515 20.9749C3.36877 20.3186 3 19.4282 3 18.5ZM19 20L19 17L6.5 17C6.10217 17 5.72064 17.158 5.43933 17.4395C5.15802 17.7207 5 18.1023 5 18.5C5 18.8977 5.15802 19.2793 5.43933 19.5605C5.72064 19.842 6.10217 20 6.5 20L19 20ZM10 4L6 4C5.7348 4 5.48041 4.10547 5.29291 4.29297C5.10535 4.48047 5 4.73486 5 5L5 15.3369C5.46869 15.1145 5.98114 14.9993 6.5 15L19 15L19 4L17 4L17 12L13.5 10L10 12L10 4Z" fill="#9A9A9A" fill-opacity="1.000000" fill-rule="nonzero"/>
	</g>
</svg>
