<svg width="261.000000" height="351.000000" viewBox="0 0 261 351" fill="none" xmlns="http://www.w3.org/2000/svg" xmlns:xlink="http://www.w3.org/1999/xlink">
	<desc>
			Created with Pixso.
	</desc>
	<defs/>
	<mask id="mask1028_3083" mask-type="alpha" maskUnits="userSpaceOnUse" x="0.000000" y="0.000000" width="261.000000" height="351.000000">
		<rect id="Rectangle 503" rx="12.000000" width="261.000000" height="351.000000" fill="#EEF4FF" fill-opacity="1.000000"/>
	</mask>
	<g mask="url(#mask1028_3083)">
		<g opacity="0.500000">
			<path id="Vector 1" d="M2.04713 467.715C16.3656 194.115 433.078 284.577 243.482 101.165C53.8866 -82.2463 385.969 -170.04 489.032 -13.9968C592.094 142.046 366.794 157.206 420.76 243.373C474.727 329.539 636.372 314.619 503.087 424.405C369.801 534.19 473.722 612.73 287.779 665.186C187.762 690.562 -9.40764 686.596 2.04713 467.715Z" stroke="#F4F4F4" stroke-opacity="1.000000" stroke-width="2.000000"/>
			<path id="Vector 4" d="M61.9132 427.704C72.8432 216.96 393.459 286.771 247.541 145.434C101.623 4.09717 357.074 -63.4246 436.411 56.8042C515.749 177.033 342.425 188.639 383.969 255.028C425.514 321.417 549.867 309.976 447.361 394.499C344.856 479.022 424.829 539.552 281.795 579.9C204.858 599.416 53.1693 596.298 61.9132 427.704Z" stroke="#F4F4F4" stroke-opacity="1.000000" stroke-width="2.000000"/>
			<path id="Vector 2" d="M-53.3269 504.956C-36.0332 172.613 469.788 282.629 239.605 59.7754C9.42212 -163.078 412.466 -269.619 537.609 -80.0376C662.751 109.544 389.294 127.888 454.824 232.573C520.353 337.259 716.548 319.186 554.805 452.502C393.062 585.819 519.223 681.256 293.547 744.917C172.158 775.711 -67.1619 770.831 -53.3269 504.956Z" stroke="#F4F4F4" stroke-opacity="1.000000" stroke-width="2.000000"/>
			<path id="Vector 3" d="M-99.912 536.002C-79.922 154.973 500.593 280.889 236.493 25.4922C-27.6078 -229.904 435.035 -352.221 578.589 -134.925C722.142 82.3704 408.271 103.518 483.439 223.508C558.607 343.499 783.799 322.695 598.101 475.607C412.402 628.52 557.163 737.881 298.114 810.963C158.775 846.319 -115.904 840.825 -99.912 536.002Z" stroke="#F4F4F4" stroke-opacity="1.000000" stroke-width="2.000000"/>
			<path id="Vector 5" d="M-166.321 580.823C-142.871 128.936 544.662 278.609 231.76 -24.4438C-81.1429 -327.497 466.659 -472.295 636.784 -214.5C806.91 43.2959 435.229 68.1936 524.314 210.546C613.399 352.898 880.066 328.356 660.246 509.601C440.426 690.847 611.919 820.633 305.19 907.157C140.203 949.008 -185.082 942.333 -166.321 580.823Z" stroke="#F4F4F4" stroke-opacity="1.000000" stroke-width="2.000000"/>
			<path id="Vector 6" d="M-243.768 633.221C-216.37 98.3604 596.089 275.994 226.169 -82.9299C-143.75 -441.854 503.406 -612.867 704.597 -307.61C905.787 -2.35352 466.643 26.8611 572 195.417C677.357 363.974 992.421 335.109 732.817 549.489C473.212 763.868 675.93 917.608 313.573 1019.81C118.66 1069.23 -265.686 1061.11 -243.768 633.221Z" stroke="#F4F4F4" stroke-opacity="1.000000" stroke-width="2.000000"/>
		</g>
	</g>
</svg>
