<svg width="24.000000" height="24.000000" viewBox="0 0 24 24" fill="none" xmlns="http://www.w3.org/2000/svg" xmlns:xlink="http://www.w3.org/1999/xlink">
	<desc>
			Created with Pixso.
	</desc>
	<defs>
		<clipPath id="clip1041_7238">
			<rect id="chat (2) 1" width="24.000000" height="24.000000" fill="white" fill-opacity="0"/>
		</clipPath>
	</defs>
	<rect id="chat (2) 1" width="24.000000" height="24.000000" fill="#FFFFFF" fill-opacity="0"/>
	<g clip-path="url(#clip1041_7238)">
		<path id="Vector" d="M18 1L6 1C4.6748 1.00171 3.40332 1.52881 2.46582 2.46631C1.5293 3.40356 1.00195 4.67432 1 6L1 14C1.00098 15.1521 1.40039 16.2688 2.12891 17.1614C2.85742 18.0537 3.87109 18.668 5 18.8999L5 22C5 22.1812 5.04883 22.3586 5.14258 22.5139C5.23535 22.6694 5.36816 22.7964 5.52832 22.8818C5.6875 22.9673 5.86816 23.0078 6.04883 22.999C6.22949 22.9902 6.4043 22.9324 6.55469 22.832L12.2998 19L18 19C19.3252 18.9985 20.5967 18.4712 21.5342 17.5337C22.4707 16.5964 22.998 15.3257 23 14L23 6C22.998 4.67432 22.4707 3.40356 21.5342 2.46631C20.5967 1.52881 19.3252 1.00171 18 1ZM16 13L8 13C7.73438 13 7.48047 12.8945 7.29297 12.707C7.10547 12.5195 7 12.2651 7 12C7 11.7349 7.10547 11.4805 7.29297 11.293C7.48047 11.1055 7.73438 11 8 11L16 11C16.2656 11 16.5195 11.1055 16.707 11.293C16.8945 11.4805 17 11.7349 17 12C17 12.2651 16.8945 12.5195 16.707 12.707C16.5195 12.8945 16.2656 13 16 13ZM18 9L6 9C5.73438 9 5.48047 8.89453 5.29297 8.70703C5.10547 8.51953 5 8.26514 5 8C5 7.73486 5.10547 7.48047 5.29297 7.29297C5.48047 7.10547 5.73438 7 6 7L18 7C18.2656 7 18.5195 7.10547 18.707 7.29297C18.8945 7.48047 19 7.73486 19 8C19 8.26514 18.8945 8.51953 18.707 8.70703C18.5195 8.89453 18.2656 9 18 9Z" fill="#3F51B5" fill-opacity="1.000000" fill-rule="nonzero"/>
	</g>
</svg>
