<svg width="186.228760" height="178.131836" viewBox="0 0 186.229 178.132" fill="none" xmlns="http://www.w3.org/2000/svg" xmlns:xlink="http://www.w3.org/1999/xlink">
	<desc>
			Created with Pixso.
	</desc>
	<defs/>
	<mask id="mask1078_6823" mask-type="alpha" maskUnits="userSpaceOnUse" x="0.000000" y="0.000000" width="186.228760" height="178.131836">
		<rect id="Rectangle 468" rx="9.716288" width="186.228867" height="178.131958" fill="#FF7F4D" fill-opacity="1.000000"/>
	</mask>
	<g mask="url(#mask1078_6823)">
		<path id="Vector" d="M180.709 228.725L176.009 214.095C176.009 214.095 145.857 212.752 145.608 214.881C145.358 217.011 152.834 234.705 154.826 234.705C156.819 234.705 180.709 228.725 180.709 228.725Z" fill="#0E6AC3" fill-opacity="1.000000" fill-rule="nonzero"/>
		<path id="Vector" d="M81.5664 192.425C84.2168 189.083 85.6792 186.301 86.4592 184.093L86.9893 184.422C89.7859 171.906 84.4087 159.733 84.4087 159.733L66.6143 154.749C66.6143 154.749 63.8723 163.331 61.6301 168.616C58.1418 173.317 52.4937 174.813 52.4937 174.813L49.0449 197.573C49.042 197.576 73.9258 202.061 81.5664 192.425Z" fill="#E54728" fill-opacity="1.000000" fill-rule="nonzero"/>
		<path id="Vector" d="M107.23 136.024C118.679 142.681 130.112 146.035 143.331 145.207L180.209 126.763C184.904 113.526 188.538 99.6399 187.88 85.6107C187.222 71.5815 181.79 57.2935 170.951 48.3641C165.836 44.1508 159.733 41.2627 154.655 37.0037C147.471 30.9777 142.454 22.3104 134.201 17.8564C121.11 10.7915 102.779 13.7924 96.5061 27.6235C86.9858 26.6273 75.3298 36.0349 83.2295 61.8815C85.3926 68.9615 88.9661 78.3783 87.7932 85.6869C84.4084 106.805 91.7993 127.055 107.23 136.024Z" fill="#2E0031" fill-opacity="1.000000" fill-rule="nonzero"/>
		<path id="Vector" d="M190.852 131.954C186.522 100.816 160.81 95.4052 160.81 95.4052L107.98 97.2727C107.98 97.2727 94.7737 97.8424 85.0554 109.891C75.3372 121.94 70.4778 126.799 70.1033 138.014C69.7285 149.228 76.4583 165.301 79.4468 170.907C82.4385 176.512 80.1931 191.465 80.1931 191.465C80.1931 191.465 120.404 229.967 180.71 221.491C178.964 216.333 177.124 210.865 176.612 206.429C189.715 186.612 194.456 157.901 190.852 131.954Z" fill="#FF572F" fill-opacity="1.000000" fill-rule="nonzero"/>
		<path id="Vector" d="M78.8247 189.829C78.7212 190.31 78.968 190.816 79.4646 190.953C79.9214 191.078 80.4851 190.8 80.5886 190.313C81.5117 186.048 81.7373 181.643 81.2437 177.307C80.7441 172.902 79.562 168.616 77.7158 164.585C76.6982 162.364 75.4705 160.244 74.054 158.251C73.7676 157.849 73.2556 157.657 72.8049 157.922C72.4087 158.154 72.1895 158.769 72.4758 159.172C74.916 162.599 76.7776 166.41 77.9871 170.438C79.1934 174.444 79.7632 178.62 79.6594 182.803C79.6016 185.17 79.3245 187.516 78.8247 189.829Z" fill="#180205" fill-opacity="1.000000" fill-rule="nonzero"/>
		<path id="Vector" d="M145.233 57.2783C145.732 47.4351 137.135 48.806 134.89 53.4154C134.89 53.4154 124.922 53.79 118.816 44.5684C112.711 35.3496 102.95 34.725 98.8406 40.0839C98.8406 40.0839 92.6531 38.9628 91.7788 48.3064C90.9075 57.65 94.6638 87.0549 113.595 86.6832C113.595 86.6832 113.461 93.9095 112.961 96.4016L107.977 97.2729C107.977 97.2729 111.852 109.157 130.53 109.858C153.83 110.729 160.807 95.4054 160.807 95.4054L147.1 92.167C147.1 92.167 137.882 79.9565 136.136 65.7538C136.136 65.7507 144.733 67.1216 145.233 57.2783Z" fill="#FFBEAE" fill-opacity="1.000000" fill-rule="nonzero"/>
		<path id="Vector" d="M148.764 107.444C152.273 105.881 155.527 103.773 158.403 101.223C158.772 100.894 158.738 100.263 158.403 99.9309C158.038 99.5653 157.48 99.6019 157.111 99.9309C152.237 104.251 146.18 107.154 139.786 108.354C133.355 109.561 126.665 108.875 120.559 106.557C117.144 105.259 113.9 103.422 111.045 101.143C110.661 100.836 110.128 100.766 109.753 101.143C109.434 101.463 109.366 102.127 109.753 102.435C115.204 106.789 121.766 109.558 128.681 110.463C135.509 111.355 142.485 110.24 148.764 107.444Z" fill="#180205" fill-opacity="1.000000" fill-rule="nonzero"/>
		<path id="Vector" d="M146.487 173.023C147.13 170.616 147.776 168.21 148.419 165.803C149.442 161.983 150.463 158.166 151.487 154.345C151.721 153.468 151.956 152.593 152.19 151.716C152.495 150.58 150.731 150.092 150.427 151.229C149.784 153.635 149.138 156.042 148.495 158.449C147.471 162.269 146.451 166.086 145.427 169.907C145.193 170.784 144.958 171.658 144.723 172.536C144.419 173.675 146.183 174.16 146.487 173.023Z" fill="#180205" fill-opacity="1.000000" fill-rule="nonzero"/>
		<path id="Vector" d="M159.435 142.505L120.936 99.8934C120.936 99.8934 103.242 101.886 89.3835 105.405C75.5249 108.923 62.885 115.595 62.885 115.595C62.885 115.595 55.8962 108.865 43.6858 107.254C31.4756 105.642 14.5308 104.131 14.5308 104.131L9.37915 110.376L54.9001 132.975L157.382 152.293L159.435 142.505Z" fill="#FCF4E6" fill-opacity="1.000000" fill-rule="nonzero"/>
		<path id="Vector" d="M101.5 166.427L159.435 154.753L120.449 108.095L70.0842 118.956L60.0063 118.956L6.55542 109.896L43.5613 154.753L86.1729 164.559L101.5 166.427Z" fill="#0E6AC3" fill-opacity="1.000000" fill-rule="nonzero"/>
		<path id="Vector" d="M70.0842 118.956L60.0063 118.956L86.1729 164.559L101.5 166.426L70.0842 118.956Z" fill="#1058C1" fill-opacity="1.000000" fill-rule="nonzero"/>
		<path id="Vector" d="M90.657 159.735L98.6299 166.425C98.6299 166.425 107.352 162.261 111.09 158.115C111.09 158.115 104.61 153.594 103.614 142.629C102.618 131.665 97.2588 132.411 94.7668 133.657C92.2747 134.903 92.8992 138.641 89.408 139.388C85.9197 140.134 72.7131 131.165 66.8547 133.532C60.9993 135.899 62.3701 142.751 66.1084 147.114C69.8494 151.473 78.5715 158.029 90.657 159.735Z" fill="#FFBEAE" fill-opacity="1.000000" fill-rule="nonzero"/>
		<path id="Vector" d="M165.044 213.896C180.014 211.757 188.642 185.746 190.827 160.841C192.079 146.571 145.607 172.78 145.607 172.78C139.252 170.912 108.976 154.751 108.976 154.751C102.246 161.392 95.8943 165.678 95.8943 165.678C103.367 176.893 141.494 217.262 165.044 213.896Z" fill="#FF572F" fill-opacity="1.000000" fill-rule="nonzero"/>
		<path id="Vector" d="M164.802 213.016C164.78 213.019 164.761 213.022 164.74 213.022C164.736 213.026 164.752 213.022 164.802 213.016Z" fill="#180205" fill-opacity="1.000000" fill-rule="nonzero"/>
		<path id="Vector" d="" fill="#180205" fill-opacity="1.000000" fill-rule="nonzero"/>
		<path id="Vector" d="" fill="#180205" fill-opacity="1.000000" fill-rule="nonzero"/>
		<path id="Vector" d="M108.513 155.54C108.72 155.646 108.927 155.753 109.135 155.862C109.296 155.707 109.461 155.555 109.622 155.396C109.25 155.445 108.882 155.491 108.513 155.54Z" fill="#180205" fill-opacity="1.000000" fill-rule="nonzero"/>
		<path id="Vector" d="M109.135 155.863C108.927 155.757 108.72 155.65 108.513 155.54C108.882 155.492 109.25 155.446 109.622 155.397C109.46 155.556 109.296 155.705 109.135 155.863C110.143 156.387 111.154 156.914 112.166 157.435C115.139 158.974 118.119 160.503 121.101 162.023C124.858 163.937 128.62 165.838 132.398 167.714C135.968 169.487 139.551 171.245 143.164 172.93C145.586 174.06 148.026 175.245 150.558 176.114C150.725 176.171 150.896 176.226 151.07 176.278C152.2 176.613 152.681 174.849 151.557 174.514C150.649 174.246 149.772 173.874 148.897 173.512C148.891 173.509 148.888 173.509 148.882 173.506C148.876 173.503 148.876 173.503 148.87 173.5C148.806 173.472 148.739 173.445 148.675 173.417C148.511 173.347 148.346 173.277 148.185 173.207C147.865 173.07 147.548 172.93 147.231 172.787C146.512 172.467 145.799 172.141 145.086 171.812C141.58 170.194 138.11 168.5 134.649 166.788C130.844 164.908 127.054 162.998 123.27 161.073C120.157 159.489 117.046 157.895 113.942 156.29C112.464 155.525 110.999 154.724 109.506 153.99C109.485 153.981 109.464 153.968 109.445 153.956C109.08 153.767 108.638 153.804 108.336 154.099C104.592 157.789 100.571 161.228 96.2966 164.281C96.0132 164.485 95.7268 164.686 95.4375 164.884C95.0474 165.149 94.822 165.7 95.1084 166.133C96.7261 168.555 98.5967 170.819 100.485 173.033C103.2 176.214 106.048 179.282 108.982 182.261C112.461 185.798 116.065 189.213 119.794 192.482C123.724 195.928 127.797 199.215 132.044 202.259C136.081 205.15 140.288 207.831 144.73 210.058C148.648 212.023 152.794 213.692 157.117 214.5C161.071 215.237 165.257 215.301 169.017 213.704C173.477 211.812 176.865 208.029 179.457 204.047C182.753 198.984 185.014 193.25 186.775 187.495C188.801 180.875 190.144 174.057 191.046 167.196C191.268 165.502 191.46 163.802 191.625 162.1C191.674 161.609 191.171 161.186 190.711 161.186C190.178 161.186 189.846 161.606 189.797 162.1C189.136 168.915 188.021 175.693 186.321 182.328C184.795 188.29 182.817 194.207 179.914 199.654C177.656 203.892 174.698 208.145 170.683 210.749C168.901 211.907 167.116 212.647 164.992 212.979C164.947 212.985 164.758 213.013 164.742 213.016C164.764 213.013 164.782 213.01 164.803 213.01C164.751 213.016 164.74 213.019 164.742 213.016C164.669 213.025 164.593 213.034 164.52 213.043C164.289 213.071 164.057 213.092 163.825 213.11C163.372 213.147 162.915 213.165 162.458 213.171C161.531 213.183 160.605 213.138 159.685 213.043C159.466 213.022 159.25 212.994 159.033 212.967C158.957 212.958 158.939 212.955 158.936 212.955C158.933 212.955 158.915 212.952 158.838 212.94C158.707 212.921 158.573 212.9 158.442 212.879C157.967 212.802 157.492 212.717 157.02 212.62C156.011 212.413 155.015 212.157 154.028 211.864C151.971 211.255 149.955 210.478 148.078 209.634C143.721 207.672 139.597 205.22 135.642 202.545C131.435 199.699 127.417 196.583 123.538 193.305C119.733 190.088 116.062 186.712 112.516 183.215C109.424 180.165 106.42 177.021 103.541 173.768C102.368 172.442 101.217 171.099 100.095 169.728C99.6172 169.143 99.145 168.552 98.6819 167.955C98.6575 167.924 98.5845 167.827 98.5693 167.809C98.5874 167.833 98.6057 167.857 98.6272 167.882C98.5752 167.812 98.5632 167.796 98.5693 167.809C98.5417 167.775 98.5173 167.742 98.49 167.705C98.3833 167.565 98.2769 167.428 98.1731 167.288C97.9873 167.041 97.8015 166.791 97.6187 166.538C97.4634 166.325 97.3171 166.106 97.1648 165.889C96.8967 166.078 96.6255 166.267 96.3545 166.45C96.4641 166.032 96.5737 165.615 96.6833 165.201C96.8389 165.435 97.0063 165.661 97.1648 165.889C99.9827 163.921 102.658 161.716 105.238 159.455C106.566 158.303 107.864 157.097 109.135 155.863Z" fill="#180205" fill-opacity="1.000000" fill-rule="nonzero"/>
		<path id="Vector" d="M98.6279 167.897C98.6094 167.872 98.5908 167.848 98.5691 167.823C98.5601 167.814 98.5723 167.829 98.6279 167.897Z" fill="#180205" fill-opacity="1.000000" fill-rule="nonzero"/>
		<path id="Vector" d="M96.3542 166.468C96.6255 166.285 96.8965 166.096 97.1646 165.907C97.0032 165.679 96.8386 165.45 96.6833 165.219C96.5706 165.633 96.4609 166.051 96.3542 166.468Z" fill="#180205" fill-opacity="1.000000" fill-rule="nonzero"/>
		<path id="Vector" d="M52.408 137.257C50.4155 132.511 34.7595 122.972 25.9949 133.452C17.2271 143.932 29.7329 158.111 29.7329 158.111L33.2212 167.917C40.6973 170.659 51.6616 164.429 51.6616 164.429L49.1697 160.941C51.6616 152.968 48.4231 149.696 48.4231 149.696C52.6548 147.177 54.4004 142.004 52.408 137.257Z" fill="#FFBEAE" fill-opacity="1.000000" fill-rule="nonzero"/>
		<path id="Vector" d="M61.6267 168.619C61.6267 168.619 54.1384 165.225 51.9082 162.127C51.9082 162.127 45.1785 165.926 31.4753 166.426C31.4753 166.426 36.2097 191.096 49.0447 197.576L61.6267 168.619Z" fill="#E54728" fill-opacity="1.000000" fill-rule="nonzero"/>
		<path id="Vector" d="M-2.1665 352.078C0.325439 344.602 4.81006 336.629 20.2617 321.677C35.7136 306.725 53.2312 277.819 53.2312 277.819C53.2312 277.819 85.5515 281.307 104.988 284.796C124.425 288.284 155.978 292.854 172.271 270.343C187.96 248.664 180.709 228.728 180.709 228.728L164.295 229.474C164.295 229.474 123.953 194.854 98.5083 190.101C73.064 185.348 44.1831 187.609 28.2346 211.034C12.2861 234.458 -26.5874 340.117 -26.5874 340.117C-12.6313 361.047 -2.1665 352.078 -2.1665 352.078Z" fill="#0E6AC3" fill-opacity="1.000000" fill-rule="nonzero"/>
		<path id="Vector" d="M164.288 278.517C126.219 290.929 104.168 255.02 104.168 255.02L110.136 285.68C126.536 288.354 148.76 290.261 164.288 278.517Z" fill="#180205" fill-opacity="1.000000" fill-rule="nonzero"/>
		<path id="Vector" d="M29.0232 211.493C32.5632 206.317 37.0417 201.814 42.2786 198.356C47.2688 195.06 52.8225 192.732 58.6047 191.237C70.407 188.187 82.9312 188.486 94.8918 190.396C97.3777 190.792 99.8484 191.243 102.273 191.934C104.583 192.592 106.843 193.403 109.067 194.304C114.036 196.324 118.813 198.813 123.462 201.479C132.693 206.771 141.473 212.843 149.97 219.24C154.555 222.692 159.051 226.259 163.448 229.949C163.514 230.003 163.582 230.061 163.646 230.119C164.535 230.881 165.833 229.595 164.937 228.827C161.202 225.623 157.324 222.579 153.421 219.587C145.062 213.175 136.425 207.078 127.38 201.662C122.63 198.816 117.756 196.154 112.699 193.89C108.266 191.907 103.663 190.158 98.8767 189.244C86.7058 186.92 73.9622 186.216 61.752 188.647C49.6116 191.063 38.3181 197.001 30.3879 206.643C29.3491 207.907 28.3652 209.22 27.4421 210.573C26.781 211.545 28.3652 212.458 29.0232 211.493Z" fill="#180205" fill-opacity="1.000000" fill-rule="nonzero"/>
		<path id="Vector" d="M108.476 365.033C108.476 365.033 111.715 323.667 111.093 299.743C110.472 275.822 100.028 212.101 62.8853 220.537C25.7422 228.973 51.6833 295.755 62.8853 311.704C74.0874 327.652 82.4348 360.546 82.9954 368.521C82.9954 368.521 97.512 369.518 108.476 365.033Z" fill="#0E6AC3" fill-opacity="1.000000" fill-rule="nonzero"/>
		<path id="Vector" d="M47.2224 234.49C47.2285 234.475 47.2346 234.456 47.2439 234.441C47.21 234.515 47.21 234.518 47.2224 234.49Z" fill="#180205" fill-opacity="1.000000" fill-rule="nonzero"/>
		<path id="Vector" d="M50.2356 229.26C50.2388 229.254 50.2449 229.248 50.248 229.242C50.186 229.325 50.2017 229.304 50.2356 229.26Z" fill="#180205" fill-opacity="1.000000" fill-rule="nonzero"/>
		<path id="Vector" d="M44.9373 243.236C44.9404 243.217 44.9404 243.202 44.9434 243.183C44.9373 243.236 44.9341 243.245 44.9373 243.236Z" fill="#180205" fill-opacity="1.000000" fill-rule="nonzero"/>
		<path id="Vector" d="M53.8582 225.617C53.812 225.655 53.8242 225.642 53.8552 225.621C53.886 225.599 53.9231 225.568 53.8582 225.617Z" fill="#180205" fill-opacity="1.000000" fill-rule="nonzero"/>
		<path id="Vector" d="M55.0396 294.669C55.0615 294.725 55.052 294.697 55.0396 294.666C55.0271 294.638 55.021 294.623 55.0396 294.669Z" fill="#180205" fill-opacity="1.000000" fill-rule="nonzero"/>
		<path id="Vector" d="M78.7114 222.544C78.7268 222.551 78.7422 222.557 78.7578 222.563C78.6836 222.532 78.6836 222.532 78.7114 222.544Z" fill="#180205" fill-opacity="1.000000" fill-rule="nonzero"/>
		<path id="Vector" d="M58.6099 222.853C58.6262 222.847 58.6423 222.84 58.6587 222.834C58.6716 222.827 58.6619 222.831 58.6099 222.853Z" fill="#180205" fill-opacity="1.000000" fill-rule="nonzero"/>
		<path id="Vector" d="M108.863 284.167C108.878 284.279 108.893 284.392 108.908 284.505C109.018 285.336 109.121 286.171 109.219 287.006C109.569 290.013 109.846 293.032 110.02 296.054C110.09 297.282 110.145 298.512 110.179 299.743C110.209 300.916 112.037 300.922 112.007 299.743C111.933 296.983 111.754 294.226 111.507 291.478C111.202 288.087 110.794 284.706 110.297 281.339C109.755 277.662 109.103 274 108.329 270.363C107.516 266.53 106.568 262.722 105.463 258.963C104.354 255.2 103.086 251.484 101.6 247.855C100.162 244.34 98.5349 240.894 96.6187 237.613C94.8242 234.545 92.7708 231.608 90.3916 228.964C88.189 226.517 85.6663 224.324 82.8452 222.621C80.1003 220.964 77.054 219.781 73.8887 219.245C70.3789 218.651 66.8115 218.798 63.3293 219.51C59.9873 220.196 56.7153 221.427 53.8882 223.358C51.3079 225.119 49.1387 227.401 47.4783 230.045C45.8027 232.714 44.6604 235.712 43.9231 238.767C43.1157 242.109 42.7625 245.564 42.6985 248.998C42.6284 252.699 42.8933 256.401 43.3687 260.069C43.8774 263.971 44.6086 267.84 45.5225 271.667C46.4243 275.441 47.4937 279.173 48.697 282.863C49.8486 286.387 51.1221 289.873 52.5173 293.309C53.7815 296.423 55.1372 299.503 56.6147 302.522C57.7939 304.931 59.0459 307.308 60.4351 309.602C60.9653 310.473 61.5137 311.335 62.1016 312.17C62.385 312.572 62.8997 312.761 63.3506 312.499C63.7498 312.264 63.9631 311.655 63.6797 311.25C62.3696 309.383 61.2212 307.399 60.1396 305.395C58.72 302.762 57.4192 300.063 56.2004 297.331C55.8594 296.569 55.5273 295.804 55.2012 295.036C55.1616 294.945 55.125 294.854 55.0854 294.762C55.0793 294.75 55.061 294.701 55.0459 294.671C55.0581 294.701 55.0703 294.729 55.0459 294.674C55.0247 294.628 55.0305 294.64 55.0459 294.671C55.0366 294.649 55.0276 294.628 55.0276 294.625C54.9392 294.415 54.8508 294.202 54.7625 293.991C54.595 293.589 54.4304 293.187 54.2659 292.785C53.5896 291.122 52.9438 289.446 52.3254 287.761C51.0244 284.212 49.8455 280.617 48.8066 276.983C47.7463 273.266 46.8293 269.507 46.1104 265.708C45.3977 261.948 44.9131 258.484 44.6633 254.658C44.4348 251.145 44.4441 247.605 44.8369 244.105C44.8584 243.91 44.8828 243.715 44.9072 243.52C44.9192 243.426 44.9314 243.334 44.9436 243.24C44.9436 243.249 44.9436 243.24 44.9497 243.188C44.9468 243.206 44.9468 243.221 44.9436 243.24C44.9468 243.215 44.968 243.063 44.9741 243.017C45.032 242.609 45.0959 242.201 45.166 241.792C45.3032 240.994 45.4646 240.199 45.6504 239.41C46.01 237.89 46.47 236.388 47.0457 234.935C47.1035 234.786 47.1646 234.639 47.2256 234.49C47.2134 234.518 47.2134 234.514 47.2468 234.441C47.2407 234.457 47.2346 234.475 47.2256 234.49C47.2439 234.448 47.2925 234.332 47.3018 234.31C47.3413 234.219 47.384 234.125 47.4236 234.033C47.5789 233.689 47.7405 233.348 47.908 233.012C48.2429 232.345 48.6055 231.697 48.9956 231.063C49.3794 230.441 49.7969 229.841 50.2385 229.262C50.2051 229.305 50.1897 229.326 50.2507 229.244C50.2476 229.25 50.2415 229.256 50.2385 229.262C50.2629 229.232 50.2935 229.189 50.3115 229.168C50.3635 229.101 50.4182 229.034 50.4731 228.967C50.595 228.814 50.7229 228.662 50.8479 228.516C51.0854 228.236 51.3323 227.961 51.585 227.696C52.0938 227.16 52.6331 226.648 53.1965 226.167C53.3308 226.054 53.4648 225.942 53.5989 225.832C53.678 225.768 53.7542 225.707 53.8333 225.646C53.8364 225.643 53.8455 225.637 53.8547 225.628C53.8274 225.649 53.812 225.661 53.8577 225.625C53.9216 225.576 53.8821 225.606 53.8547 225.628C53.8853 225.604 53.937 225.567 53.946 225.558C54.2478 225.329 54.5554 225.107 54.8723 224.894C55.5151 224.458 56.1821 224.059 56.8677 223.693C57.2212 223.504 57.5776 223.328 57.9399 223.157C58.1106 223.078 58.2844 222.999 58.458 222.923C58.4824 222.913 58.6348 222.846 58.6621 222.834C58.6467 222.84 58.6316 222.846 58.6165 222.853C58.665 222.831 58.6743 222.828 58.6621 222.834C58.7473 222.798 58.8357 222.764 58.9211 222.728C60.5449 222.073 62.2356 221.591 63.9539 221.247C64.4016 221.156 64.8525 221.076 65.3035 221.006C65.407 220.991 65.5107 220.976 65.6143 220.96C65.6416 220.958 65.7605 220.939 65.8032 220.933C65.791 220.933 65.7817 220.936 65.7695 220.936C65.8274 220.93 65.8274 220.93 65.8032 220.933C66.0254 220.903 66.251 220.878 66.4734 220.854C67.3293 220.762 68.1885 220.708 69.0508 220.696C69.8794 220.683 70.708 220.711 71.5337 220.778C71.9265 220.811 72.3196 220.851 72.7126 220.903C72.6638 220.896 72.6426 220.894 72.74 220.906C72.731 220.906 72.7217 220.903 72.7126 220.903C72.7583 220.909 72.8254 220.918 72.8557 220.924C72.9473 220.936 73.0415 220.951 73.1331 220.967C73.3433 221 73.5503 221.037 73.7605 221.073C75.2991 221.357 76.8071 221.792 78.2634 222.365C78.4158 222.426 78.5681 222.487 78.7173 222.551C78.6899 222.539 78.6929 222.539 78.7629 222.569C78.7478 222.563 78.7324 222.557 78.7173 222.551C78.76 222.569 78.8787 222.621 78.9031 222.63C78.9976 222.673 79.092 222.712 79.1865 222.755C79.5398 222.913 79.8872 223.081 80.2344 223.258C80.926 223.611 81.6023 223.992 82.2634 224.403C82.9275 224.817 83.5764 225.262 84.207 225.728C84.2803 225.783 84.3533 225.838 84.4294 225.893C84.4539 225.911 84.5269 225.966 84.5574 225.99C84.5483 225.981 84.5361 225.975 84.5269 225.966C84.5818 226.009 84.5818 226.009 84.5574 225.99C84.7129 226.112 84.8711 226.234 85.0234 226.359C85.3342 226.609 85.6421 226.868 85.9404 227.13C87.1743 228.205 88.3291 229.369 89.4106 230.597C90.5957 231.94 91.4639 233.061 92.4722 234.502C94.5469 237.463 96.3201 240.629 97.8767 243.892C98.7053 245.625 99.4182 247.264 100.098 248.961C100.817 250.752 101.484 252.562 102.105 254.39C103.361 258.076 104.436 261.82 105.371 265.601C106.282 269.287 107.059 273.007 107.72 276.745C108.034 278.521 108.32 280.303 108.582 282.089C108.646 282.521 108.707 282.954 108.768 283.387C108.795 283.588 108.823 283.786 108.85 283.987C108.875 284.169 108.856 284.039 108.853 283.999C108.847 284.054 108.856 284.112 108.863 284.167Z" fill="#180205" fill-opacity="1.000000" fill-rule="nonzero"/>
		<path id="Vector" d="M84.5151 225.966C84.5249 225.976 84.5376 225.982 84.5474 225.992C84.573 226.011 84.5732 226.011 84.5151 225.966Z" fill="#180205" fill-opacity="1.000000" fill-rule="nonzero"/>
		<path id="Vector" d="M72.7065 220.9C72.7158 220.9 72.7251 220.904 72.7344 220.904C72.6387 220.891 72.6572 220.894 72.7065 220.9Z" fill="#180205" fill-opacity="1.000000" fill-rule="nonzero"/>
		<path id="Vector" d="M65.7664 220.934C65.7793 220.934 65.7891 220.931 65.802 220.931C65.8281 220.927 65.8281 220.927 65.7664 220.934Z" fill="#180205" fill-opacity="1.000000" fill-rule="nonzero"/>
		<path id="Vector" d="M-31.322 386.963C-17.6157 386.463 -6.65137 380.733 -5.15552 379.237C-3.65967 377.741 -2.41357 376.245 -2.16382 367.277C-1.91406 358.304 -2.16382 352.074 -2.16382 352.074C-10.6362 353.071 -11.6323 347.59 -15.8701 343.102C-20.1079 338.615 -25.7561 338.009 -26.5847 337.868C-29.0828 337.448 -36.303 349.333 -43.5293 356.309C-50.7556 363.286 -60.7239 363.785 -60.7239 371.011C-60.7268 381.233 -45.0283 387.463 -31.322 386.963Z" fill="#F71F6A" fill-opacity="1.000000" fill-rule="nonzero"/>
		<path id="Vector" d="M-31.3223 386.963C-17.6162 386.463 -6.65186 380.733 -5.15601 379.237C-3.6875 377.769 -2.46289 376.297 -2.18262 367.77C-18.8652 369.689 -17.0342 378.29 -34.5608 379.237C-47.2708 379.923 -56.3098 374.101 -60.7 370.414C-60.7151 370.609 -60.7273 370.807 -60.7273 371.011C-60.7273 381.233 -45.0286 387.463 -31.3223 386.963Z" fill="#FFFFFF" fill-opacity="1.000000" fill-rule="nonzero"/>
		<path id="Vector" d="M108.227 363.041C104.571 362.294 101.747 366.033 93.9382 367.029C87.8362 367.809 85.7766 365.384 82.8369 367.038C79.8999 368.689 79.5679 377.497 79.5679 385.969C79.5679 394.441 75.5801 402.167 75.8298 407.151C76.0796 412.135 79.3181 417.369 94.0205 416.37C108.723 415.374 111.873 410.39 111.169 402.414C110.466 394.441 111.169 388.875 113.591 381.149C115.264 375.821 112.016 363.815 108.227 363.041Z" fill="#F71F6A" fill-opacity="1.000000" fill-rule="nonzero"/>
		<path id="Vector" d="M94.0234 416.368C107.34 415.466 111.178 411.292 111.264 404.59C97.0547 411.679 82.5166 409.632 75.918 408.087C76.5334 412.764 80.241 417.303 94.0234 416.368Z" fill="#FFFFFF" fill-opacity="1.000000" fill-rule="nonzero"/>
		<path id="Vector" d="M100.96 366.914C102.24 366.375 103.467 365.729 104.628 364.967C105.039 364.696 105.213 364.16 104.957 363.718C104.716 363.31 104.122 363.118 103.708 363.389C99.8816 365.903 95.3118 367.13 90.739 366.914C89.4717 366.853 88.2195 366.673 86.9856 366.384C86.5044 366.271 85.9956 366.533 85.8616 367.024C85.7336 367.487 86.0168 368.035 86.5012 368.148C91.2996 369.272 96.4146 368.83 100.96 366.914Z" fill="#180205" fill-opacity="1.000000" fill-rule="nonzero"/>
		<path id="Vector" d="M-15.7798 344.131C-13.4067 346.772 -12.2246 350.336 -9.18726 352.384C-7.59082 353.459 -5.57397 354.01 -3.69434 353.428C-2.57324 353.081 -3.05151 351.317 -4.17871 351.665C-5.59229 352.1 -7.02124 351.64 -8.26416 350.805C-9.63501 349.882 -10.5947 348.496 -11.4722 347.122C-12.4258 345.633 -13.3335 344.109 -14.5278 342.793C-15.6245 341.584 -16.9314 340.542 -18.345 339.725C-19.9719 338.787 -21.7693 338.126 -23.6187 337.815C-24.106 337.733 -24.6025 337.943 -24.7427 338.455C-24.8645 338.894 -24.5935 339.497 -24.103 339.579C-20.9041 340.118 -17.9551 341.712 -15.7798 344.131Z" fill="#180205" fill-opacity="1.000000" fill-rule="nonzero"/>
		<path id="Vector" d="M136.858 57.7778C136.937 55.6575 139.049 53.9636 141.123 54.2256C141.37 54.2561 141.58 53.994 141.58 53.7687C141.58 53.4974 141.37 53.3422 141.123 53.3116C138.54 52.9857 136.042 55.2096 135.944 57.7778C135.923 58.3658 136.837 58.3658 136.858 57.7778Z" fill="#180205" fill-opacity="1.000000" fill-rule="nonzero"/>
		<path id="Vector" d="M115.712 60.4642C116.592 60.3029 117.113 59.1177 116.875 57.823C116.635 56.5282 115.727 55.6082 114.846 55.7697C113.966 55.931 113.445 57.1162 113.683 58.4109C113.92 59.7087 114.831 60.6257 115.712 60.4642Z" fill="#180205" fill-opacity="1.000000" fill-rule="nonzero"/>
		<path id="Vector" d="M115.616 59.3993C115.616 59.7426 115.338 60.0209 114.995 60.0209C114.652 60.0209 114.374 59.7426 114.374 59.3993C114.374 59.0562 114.652 58.7778 114.995 58.7778C115.338 58.7778 115.616 59.0562 115.616 59.3993Z" fill="#FFFFFF" fill-opacity="1.000000" fill-rule="evenodd"/>
		<path id="Vector" d="M102.686 61.2009C103.156 62.4315 102.859 63.6887 102.021 64.009C101.183 64.3292 100.123 63.5913 99.6523 62.3607C99.1819 61.13 99.4797 59.8728 100.317 59.5526C101.155 59.2323 102.216 59.9703 102.686 61.2009Z" fill="#180205" fill-opacity="1.000000" fill-rule="evenodd"/>
		<path id="Vector" d="M101.225 63.6854C101.563 63.6215 101.785 63.2986 101.725 62.9603C101.66 62.6222 101.338 62.3998 101 62.4607C100.661 62.5216 100.439 62.8477 100.5 63.1858C100.561 63.5239 100.887 63.7494 101.225 63.6854Z" fill="#FFFFFF" fill-opacity="1.000000" fill-rule="nonzero"/>
		<path id="Vector" d="M112.138 52.0363C112.5 51.3873 113.094 50.8907 113.813 50.6866C114.599 50.4613 115.434 50.6166 116.116 51.0583C116.61 51.3783 117.07 50.5892 116.576 50.2693C115.699 49.6996 114.578 49.5168 113.57 49.8063C112.631 50.0743 111.821 50.7233 111.349 51.5763C111.062 52.0912 111.851 52.5511 112.138 52.0363Z" fill="#180205" fill-opacity="1.000000" fill-rule="nonzero"/>
		<path id="Vector" d="M96.9031 56.8269C97.2656 56.1781 97.8596 55.6815 98.5786 55.4773C99.3647 55.252 100.199 55.4072 100.882 55.849C101.375 56.1689 101.835 55.3799 101.342 55.0599C100.465 54.4902 99.3435 54.3075 98.335 54.5969C97.3967 54.865 96.5862 55.5139 96.114 56.3669C95.8276 56.8788 96.6167 57.3418 96.9031 56.8269Z" fill="#180205" fill-opacity="1.000000" fill-rule="nonzero"/>
		<path id="Vector" d="M106.161 67.8324C106.247 67.6586 106.323 67.4817 106.399 67.3079C106.228 67.2682 106.058 67.2195 105.887 67.1615C105.978 67.3872 106.07 67.6099 106.161 67.8324Z" fill="#180205" fill-opacity="1.000000" fill-rule="nonzero"/>
		<path id="Vector" d="M105.643 68.0417C106.6 68.3678 107.602 68.4318 108.595 68.2703C109.174 68.1758 108.927 67.2954 108.351 67.3898C107.693 67.4965 107.035 67.4598 106.396 67.3076C106.319 67.4843 106.243 67.661 106.158 67.8315C106.066 67.6091 105.975 67.3838 105.884 67.1614C106.051 67.2192 106.222 67.2679 106.396 67.3076C107.178 65.5132 107.55 63.5603 107.438 61.5984C107.404 61.0134 106.49 61.0104 106.523 61.5984C106.636 63.5908 106.249 65.5802 105.366 67.3716C105.235 67.6458 105.351 67.9443 105.643 68.0417Z" fill="#180205" fill-opacity="1.000000" fill-rule="nonzero"/>
		<path id="Vector" d="M115.672 71.287C116.047 70.8391 115.404 70.1902 115.026 70.6411C113.576 72.3655 111.188 73.1575 109 72.5879C108.43 72.4386 108.187 73.322 108.756 73.4683C111.236 74.1141 114.015 73.255 115.672 71.287Z" fill="#180205" fill-opacity="1.000000" fill-rule="nonzero"/>
		<path id="Vector" d="M127.581 80.9539C122.307 86.4376 113.594 86.6843 113.594 86.6843L113.347 92.7408C125.92 90.7971 127.581 80.9539 127.581 80.9539Z" fill="#180205" fill-opacity="1.000000" fill-rule="nonzero"/>
		<path id="Vector" d="M43.8718 149.871C41.6663 150.422 39.3418 150.377 37.1482 149.789C36.012 149.484 35.5244 151.248 36.6638 151.553C40.7859 152.659 45.3953 152.037 48.9231 149.569C52.1006 147.348 54.2026 143.814 54.0837 139.869C54.0168 137.657 53.2734 135.552 51.8782 133.831C51.5674 133.447 50.9094 133.508 50.5864 133.831C50.2087 134.209 50.2756 134.739 50.5864 135.123C52.6123 137.621 52.7556 141.39 51.3206 144.198C49.8401 147.099 46.9915 149.088 43.8718 149.871Z" fill="#180205" fill-opacity="1.000000" fill-rule="nonzero"/>
	</g>
</svg>
