<svg width="287.000061" height="274.521729" viewBox="0 0 287 274.522" fill="none" xmlns="http://www.w3.org/2000/svg" xmlns:xlink="http://www.w3.org/1999/xlink">
	<desc>
			Created with Pixso.
	</desc>
	<defs/>
	<mask id="mask1028_3098" mask-type="alpha" maskUnits="userSpaceOnUse" x="0.000000" y="0.000000" width="287.000061" height="274.521729">
		<rect id="Rectangle 468" rx="12.000000" width="287.000061" height="274.521759" transform="matrix(-1 0 0 1 287 0)" fill="#FF7F4D" fill-opacity="1.000000"/>
	</mask>
	<g mask="url(#mask1028_3098)">
		<path id="Vector" d="M8.50635 352.49L15.7508 329.945C15.7508 329.945 62.2175 327.874 62.6025 331.156C62.9874 334.438 51.4659 361.707 48.3953 361.707C45.3248 361.707 8.50635 352.49 8.50635 352.49Z" fill="#0E6AC3" fill-opacity="1.000000" fill-rule="nonzero"/>
		<path id="Vector" d="M161.297 296.548C157.212 291.397 154.958 287.111 153.756 283.707L152.939 284.214C148.629 264.927 156.916 246.166 156.916 246.166L184.34 238.484C184.34 238.484 188.565 251.71 192.021 259.856C197.397 267.101 206.101 269.406 206.101 269.406L211.416 304.482C211.421 304.487 173.072 311.398 161.297 296.548Z" fill="#E54728" fill-opacity="1.000000" fill-rule="nonzero"/>
		<path id="Vector" d="M121.746 209.629C104.102 219.887 86.4814 225.057 66.1097 223.78L9.27649 195.356C2.04144 174.956 -3.55969 153.556 -2.54553 131.936C-1.53143 110.315 6.83978 88.2954 23.5446 74.5342C31.4276 68.041 40.8317 63.5903 48.6583 57.0266C59.7292 47.7397 67.4619 34.3826 80.1807 27.5183C100.355 16.6306 128.605 21.2551 138.272 42.5706C152.944 41.0354 170.907 55.5334 158.733 95.3662C155.4 106.277 149.892 120.79 151.7 132.053C156.916 164.599 145.526 195.807 121.746 209.629Z" fill="#2E0031" fill-opacity="1.000000" fill-rule="nonzero"/>
		<path id="Vector" d="M-7.12323 203.356C-0.451599 155.368 39.1744 147.03 39.1744 147.03L120.591 149.908C120.591 149.908 140.944 150.786 155.921 169.355C170.898 187.924 178.386 195.412 178.964 212.695C179.541 229.977 169.17 254.748 164.564 263.387C159.954 272.026 163.414 295.069 163.414 295.069C163.414 295.069 101.444 354.405 8.50647 341.343C11.1967 333.394 14.0325 324.967 14.8214 318.131C-5.37195 287.59 -12.6774 243.344 -7.12323 203.356Z" fill="#FF572F" fill-opacity="1.000000" fill-rule="nonzero"/>
		<path id="Vector" d="M165.522 292.547C165.682 293.289 165.302 294.068 164.536 294.279C163.832 294.472 162.963 294.044 162.804 293.293C161.381 286.72 161.034 279.931 161.794 273.25C162.564 266.461 164.386 259.855 167.231 253.644C168.799 250.221 170.691 246.953 172.875 243.883C173.316 243.263 174.105 242.967 174.8 243.376C175.41 243.733 175.748 244.681 175.307 245.301C171.546 250.583 168.677 256.456 166.813 262.663C164.954 268.837 164.076 275.274 164.236 281.72C164.325 285.368 164.752 288.983 165.522 292.547Z" fill="#180205" fill-opacity="1.000000" fill-rule="nonzero"/>
		<path id="Vector" d="M63.1799 88.2722C62.41 73.1025 75.6593 75.2153 79.1195 82.3188C79.1195 82.3188 94.4816 82.8965 103.89 68.6846C113.299 54.4775 128.342 53.5149 134.676 61.7734C134.676 61.7734 144.211 60.0457 145.559 74.4453C146.902 88.845 141.113 134.161 111.938 133.589C111.938 133.589 112.144 144.725 112.914 148.566L120.595 149.908C120.595 149.908 114.623 168.224 85.8381 169.304C49.9306 170.646 39.179 147.031 39.179 147.031L60.3019 142.04C60.3019 142.04 74.509 123.222 77.1993 101.334C77.1993 101.329 63.95 103.442 63.1799 88.2722Z" fill="#FFBEAE" fill-opacity="1.000000" fill-rule="nonzero"/>
		<path id="Vector" d="M57.7386 165.582C52.33 163.174 47.3157 159.925 42.8835 155.995C42.3154 155.488 42.3671 154.516 42.8835 154.004C43.447 153.441 44.3062 153.497 44.8742 154.004C52.3863 160.662 61.72 165.136 71.5748 166.986C81.486 168.845 91.7963 167.789 101.205 164.216C106.468 162.216 111.468 159.385 115.868 155.873C116.459 155.399 117.281 155.291 117.858 155.873C118.351 156.366 118.455 157.389 117.858 157.864C109.459 164.573 99.3458 168.841 88.6882 170.235C78.1666 171.611 67.415 169.892 57.7386 165.582Z" fill="#180205" fill-opacity="1.000000" fill-rule="nonzero"/>
		<path id="Vector" d="M61.2457 266.649C60.255 262.94 59.2597 259.23 58.269 255.521C56.6915 249.634 55.1187 243.751 53.5411 237.864C53.1796 236.511 52.8181 235.164 52.4566 233.812C51.9871 232.061 54.7055 231.309 55.175 233.061C56.1656 236.77 57.161 240.479 58.1517 244.188C59.7292 250.075 61.302 255.958 62.8795 261.846C63.241 263.198 63.6025 264.545 63.9641 265.897C64.4335 267.653 61.7151 268.4 61.2457 266.649Z" fill="#180205" fill-opacity="1.000000" fill-rule="nonzero"/>
		<path id="Vector" d="M41.2919 219.616L100.623 153.947C100.623 153.947 127.892 157.017 149.249 162.44C170.607 167.863 190.086 178.145 190.086 178.145C190.086 178.145 200.857 167.774 219.674 165.29C238.492 162.806 264.606 160.478 264.606 160.478L272.545 170.102L202.392 204.93L44.4563 234.701L41.2919 219.616Z" fill="#FCF4E6" fill-opacity="1.000000" fill-rule="nonzero"/>
		<path id="Vector" d="M130.577 256.482L41.292 238.491L101.374 166.587L178.992 183.325L194.523 183.325L276.898 169.362L219.867 238.491L154.198 253.604L130.577 256.482Z" fill="#0E6AC3" fill-opacity="1.000000" fill-rule="nonzero"/>
		<path id="Vector" d="M178.992 183.324L194.523 183.324L154.198 253.604L130.577 256.482L178.992 183.324Z" fill="#1058C1" fill-opacity="1.000000" fill-rule="nonzero"/>
		<path id="Vector" d="M147.287 246.17L135 256.48C135 256.48 121.558 250.062 115.797 243.672C115.797 243.672 125.783 236.705 127.319 219.807C128.854 202.91 137.113 204.06 140.953 205.98C144.794 207.901 143.831 213.661 149.212 214.812C154.587 215.962 174.94 202.14 183.969 205.788C192.993 209.436 190.88 219.995 185.119 226.718C179.354 233.437 165.912 243.541 147.287 246.17Z" fill="#FFBEAE" fill-opacity="1.000000" fill-rule="nonzero"/>
		<path id="Vector" d="M32.6483 329.637C9.57697 326.342 -3.7193 286.255 -7.08563 247.874C-9.01532 225.882 62.6025 266.273 62.6025 266.273C72.3964 263.395 119.055 238.488 119.055 238.488C129.427 248.723 139.216 255.329 139.216 255.329C127.699 272.612 68.9408 334.825 32.6483 329.637Z" fill="#FF572F" fill-opacity="1.000000" fill-rule="nonzero"/>
		<path id="Vector" d="M33.0213 328.282C33.0551 328.287 33.084 328.292 33.1177 328.292C33.1226 328.297 33.0985 328.292 33.0213 328.282Z" fill="#180205" fill-opacity="1.000000" fill-rule="nonzero"/>
		<path id="Vector" d="" fill="#180205" fill-opacity="1.000000" fill-rule="nonzero"/>
		<path id="Vector" d="" fill="#180205" fill-opacity="1.000000" fill-rule="nonzero"/>
		<path id="Vector" d="M119.769 239.705C119.45 239.869 119.131 240.033 118.811 240.202C118.562 239.963 118.309 239.728 118.06 239.484C118.633 239.559 119.201 239.629 119.769 239.705Z" fill="#180205" fill-opacity="1.000000" fill-rule="nonzero"/>
		<path id="Vector" d="M118.811 240.203C119.13 240.039 119.45 239.875 119.769 239.705C119.201 239.63 118.633 239.56 118.06 239.485C118.309 239.729 118.562 239.959 118.811 240.203C117.257 241.01 115.698 241.823 114.14 242.626C109.557 244.997 104.966 247.354 100.369 249.697C94.5802 252.645 88.7819 255.574 82.96 258.467C77.4575 261.199 71.9362 263.908 66.3679 266.505C62.6353 268.246 58.8746 270.073 54.973 271.411C54.7148 271.5 54.4518 271.584 54.1843 271.664C52.4424 272.181 51.7006 269.462 53.433 268.946C54.8322 268.533 56.1843 267.96 57.5318 267.401C57.5412 267.397 57.5459 267.397 57.5553 267.392C57.5647 267.387 57.5646 267.387 57.574 267.383C57.6726 267.34 57.7759 267.298 57.8745 267.256C58.1281 267.148 58.3816 267.04 58.6304 266.932C59.1234 266.72 59.6117 266.505 60.1 266.284C61.208 265.791 62.3066 265.289 63.4053 264.781C68.8093 262.289 74.1569 259.678 79.4904 257.04C85.3545 254.143 91.1951 251.199 97.0263 248.232C101.825 245.79 106.618 243.335 111.402 240.86C113.68 239.682 115.938 238.447 118.238 237.316C118.271 237.302 118.304 237.283 118.332 237.264C118.896 236.973 119.576 237.029 120.041 237.485C125.811 243.17 132.009 248.471 138.596 253.175C139.033 253.49 139.474 253.8 139.92 254.105C140.521 254.513 140.868 255.363 140.427 256.03C137.934 259.762 135.051 263.251 132.14 266.664C127.957 271.566 123.567 276.294 119.046 280.885C113.684 286.336 108.13 291.599 102.383 296.637C96.3268 301.947 90.0496 307.013 83.5047 311.704C77.2838 316.159 70.7999 320.291 63.9546 323.723C57.9168 326.751 51.5269 329.324 44.8646 330.568C38.7705 331.704 32.3195 331.803 26.5259 329.343C19.6523 326.427 14.4315 320.596 10.4361 314.459C5.35608 306.656 1.87238 297.82 -0.84137 288.951C-3.96356 278.749 -6.03406 268.242 -7.42377 257.668C-7.76654 255.058 -8.06232 252.438 -8.31586 249.814C-8.39099 249.058 -7.61633 248.405 -6.90735 248.405C-6.08575 248.405 -5.57397 249.053 -5.49884 249.814C-4.48004 260.317 -2.76166 270.763 -0.141785 280.989C2.21039 290.177 5.25751 299.295 9.73181 307.689C13.2108 314.22 17.7697 320.774 23.9577 324.789C26.7043 326.573 29.4556 327.714 32.728 328.225C32.7985 328.235 33.0895 328.277 33.113 328.282C33.0801 328.277 33.052 328.272 33.0191 328.272C33.0989 328.282 33.1177 328.286 33.113 328.282C33.2256 328.296 33.343 328.31 33.4557 328.324C33.8126 328.366 34.1694 328.399 34.5262 328.427C35.2258 328.484 35.93 328.512 36.6343 328.521C38.0615 328.54 39.4888 328.469 40.9067 328.324C41.2448 328.291 41.5781 328.249 41.9114 328.207C42.0288 328.192 42.0571 328.188 42.0617 328.188C42.0664 328.188 42.0945 328.183 42.2119 328.164C42.4138 328.136 42.6204 328.103 42.8223 328.07C43.5547 327.953 44.2871 327.822 45.0148 327.671C46.5689 327.352 48.1042 326.958 49.6254 326.507C52.7946 325.568 55.9026 324.371 58.7948 323.07C65.5087 320.047 71.8657 316.267 77.9598 312.145C84.4437 307.76 90.6364 302.957 96.6132 297.905C102.477 292.947 108.135 287.745 113.6 282.355C118.365 277.655 122.994 272.81 127.431 267.796C129.239 265.753 131.014 263.683 132.741 261.57C133.478 260.669 134.206 259.758 134.92 258.838C134.957 258.791 135.07 258.64 135.094 258.612C135.065 258.65 135.037 258.687 135.004 258.725C135.084 258.617 135.103 258.594 135.094 258.612C135.136 258.561 135.173 258.509 135.216 258.453C135.38 258.237 135.544 258.025 135.704 257.809C135.99 257.429 136.277 257.044 136.558 256.655C136.798 256.326 137.023 255.988 137.258 255.654C137.671 255.946 138.089 256.237 138.507 256.518C138.338 255.875 138.169 255.232 138 254.593C137.76 254.955 137.502 255.302 137.258 255.654C132.915 252.621 128.793 249.222 124.816 245.739C122.769 243.964 120.769 242.104 118.811 240.203Z" fill="#180205" fill-opacity="1.000000" fill-rule="nonzero"/>
		<path id="Vector" d="M135.003 258.748C135.032 258.71 135.06 258.673 135.093 258.635C135.108 258.62 135.089 258.644 135.003 258.748Z" fill="#180205" fill-opacity="1.000000" fill-rule="nonzero"/>
		<path id="Vector" d="M138.507 256.546C138.089 256.264 137.671 255.973 137.258 255.682C137.507 255.33 137.76 254.978 138 254.621C138.174 255.259 138.343 255.903 138.507 256.546Z" fill="#180205" fill-opacity="1.000000" fill-rule="nonzero"/>
		<path id="Vector" d="M206.232 211.53C209.303 204.215 233.431 189.514 246.938 205.665C260.451 221.816 241.178 243.667 241.178 243.667L235.802 258.78C224.28 263.006 207.383 253.404 207.383 253.404L211.223 248.029C207.383 235.742 212.374 230.699 212.374 230.699C205.852 226.816 203.162 218.844 206.232 211.53Z" fill="#FFBEAE" fill-opacity="1.000000" fill-rule="nonzero"/>
		<path id="Vector" d="M192.025 259.861C192.025 259.861 203.566 254.631 207.003 249.856C207.003 249.856 217.374 255.711 238.492 256.481C238.492 256.481 231.196 294.501 211.416 304.487L192.025 259.861Z" fill="#E54728" fill-opacity="1.000000" fill-rule="nonzero"/>
		<path id="Vector" d="M290.339 542.592C286.499 531.07 279.588 518.783 255.774 495.74C231.961 472.697 204.965 428.151 204.965 428.151C204.965 428.151 155.155 433.527 125.201 438.902C95.247 444.278 46.6207 451.321 21.5117 416.629C-2.66766 383.219 8.50641 352.495 8.50641 352.495L33.8032 353.646C33.8032 353.646 95.9747 300.291 135.188 292.967C174.4 285.643 218.909 289.126 243.488 325.227C268.066 361.327 327.974 524.159 327.974 524.159C306.467 556.414 290.339 542.592 290.339 542.592Z" fill="#0E6AC3" fill-opacity="1.000000" fill-rule="nonzero"/>
		<path id="Vector" d="M33.8127 429.227C92.4818 448.355 126.464 393.014 126.464 393.014L117.267 440.265C91.9935 444.387 57.7433 447.326 33.8127 429.227Z" fill="#180205" fill-opacity="1.000000" fill-rule="nonzero"/>
		<path id="Vector" d="M242.272 325.935C236.816 317.958 229.914 311.019 221.844 305.69C214.153 300.61 205.594 297.023 196.683 294.718C178.495 290.018 159.193 290.478 140.761 293.422C136.93 294.032 133.122 294.727 129.385 295.793C125.826 296.807 122.342 298.056 118.915 299.446C111.257 302.558 103.895 306.394 96.7307 310.502C82.5048 318.657 68.9737 328.015 55.8793 337.874C48.8133 343.194 41.8835 348.692 35.1086 354.377C35.0052 354.462 34.902 354.551 34.8033 354.64C33.4324 355.814 31.4323 353.833 32.8127 352.649C38.5688 347.71 44.5456 343.02 50.5599 338.409C63.4431 328.527 76.7534 319.132 90.6929 310.784C98.0125 306.399 105.524 302.295 113.318 298.807C120.149 295.75 127.244 293.056 134.62 291.647C153.376 288.065 173.015 286.98 191.833 290.727C210.543 294.45 227.947 303.601 240.168 318.46C241.769 320.409 243.286 322.432 244.708 324.517C245.727 326.015 243.286 327.423 242.272 325.935Z" fill="#180205" fill-opacity="1.000000" fill-rule="nonzero"/>
		<path id="Vector" d="M119.826 562.558C119.826 562.558 114.835 498.809 115.792 461.939C116.75 425.073 132.845 326.872 190.086 339.873C247.328 352.873 207.35 455.793 190.086 480.371C172.823 504.95 159.959 555.642 159.095 567.933C159.095 567.933 136.723 569.469 119.826 562.558Z" fill="#0E6AC3" fill-opacity="1.000000" fill-rule="nonzero"/>
		<path id="Vector" d="M214.223 361.376C214.214 361.352 214.205 361.324 214.19 361.3C214.242 361.414 214.242 361.418 214.223 361.376Z" fill="#180205" fill-opacity="1.000000" fill-rule="nonzero"/>
		<path id="Vector" d="M209.58 353.316C209.575 353.307 209.565 353.297 209.561 353.288C209.656 353.416 209.632 353.383 209.58 353.316Z" fill="#180205" fill-opacity="1.000000" fill-rule="nonzero"/>
		<path id="Vector" d="M217.745 374.854C217.74 374.825 217.74 374.802 217.735 374.773C217.745 374.854 217.75 374.868 217.745 374.854Z" fill="#180205" fill-opacity="1.000000" fill-rule="nonzero"/>
		<path id="Vector" d="M203.997 347.702C204.068 347.759 204.05 347.74 204.002 347.707C203.955 347.674 203.898 347.626 203.997 347.702Z" fill="#180205" fill-opacity="1.000000" fill-rule="nonzero"/>
		<path id="Vector" d="M202.176 454.119C202.142 454.205 202.157 454.162 202.176 454.114C202.195 454.071 202.205 454.047 202.176 454.119Z" fill="#180205" fill-opacity="1.000000" fill-rule="nonzero"/>
		<path id="Vector" d="M165.695 342.966C165.672 342.975 165.648 342.985 165.624 342.994C165.738 342.947 165.738 342.947 165.695 342.966Z" fill="#180205" fill-opacity="1.000000" fill-rule="nonzero"/>
		<path id="Vector" d="M196.673 343.442C196.648 343.432 196.624 343.422 196.599 343.412C196.579 343.402 196.594 343.407 196.673 343.442Z" fill="#180205" fill-opacity="1.000000" fill-rule="nonzero"/>
		<path id="Vector" d="M119.229 437.933C119.206 438.106 119.182 438.28 119.159 438.454C118.99 439.736 118.83 441.022 118.68 442.309C118.14 446.943 117.713 451.595 117.445 456.253C117.337 458.145 117.252 460.042 117.201 461.938C117.154 463.746 114.337 463.755 114.384 461.938C114.496 457.685 114.773 453.436 115.154 449.201C115.623 443.975 116.252 438.764 117.018 433.576C117.853 427.909 118.858 422.266 120.051 416.66C121.304 410.753 122.764 404.885 124.469 399.091C126.178 393.292 128.131 387.565 130.422 381.973C132.638 376.555 135.145 371.245 138.098 366.188C140.864 361.46 144.028 356.934 147.695 352.859C151.089 349.089 154.977 345.708 159.325 343.084C163.555 340.53 168.25 338.708 173.128 337.882C178.536 336.966 184.034 337.192 189.401 338.29C194.551 339.347 199.594 341.244 203.951 344.22C207.927 346.934 211.27 350.45 213.829 354.526C216.411 358.639 218.172 363.259 219.308 367.968C220.552 373.118 221.097 378.442 221.195 383.733C221.303 389.438 220.895 395.142 220.163 400.795C219.379 406.81 218.252 412.772 216.843 418.669C215.454 424.486 213.806 430.238 211.951 435.923C210.176 441.355 208.214 446.727 206.063 452.022C204.115 456.821 202.026 461.568 199.749 466.22C197.932 469.934 196.002 473.596 193.861 477.132C193.044 478.474 192.199 479.803 191.293 481.089C190.856 481.709 190.063 482 189.368 481.596C188.753 481.235 188.424 480.296 188.861 479.672C190.88 476.793 192.65 473.737 194.316 470.648C196.504 466.591 198.509 462.431 200.387 458.22C200.913 457.046 201.425 455.868 201.927 454.685C201.988 454.544 202.045 454.403 202.106 454.262C202.115 454.243 202.143 454.168 202.167 454.121C202.148 454.168 202.129 454.21 202.167 454.126C202.199 454.055 202.19 454.074 202.167 454.121C202.181 454.088 202.195 454.055 202.195 454.051C202.331 453.727 202.467 453.398 202.603 453.074C202.861 452.455 203.115 451.835 203.369 451.215C204.411 448.652 205.406 446.069 206.359 443.473C208.364 438.003 210.181 432.463 211.782 426.862C213.416 421.134 214.829 415.34 215.937 409.486C217.036 403.692 217.782 398.354 218.167 392.457C218.519 387.043 218.505 381.588 217.9 376.193C217.867 375.893 217.829 375.592 217.792 375.292C217.773 375.146 217.754 375.005 217.735 374.86C217.735 374.874 217.735 374.86 217.726 374.78C217.731 374.808 217.731 374.832 217.735 374.86C217.731 374.822 217.698 374.588 217.688 374.517C217.599 373.888 217.5 373.259 217.393 372.63C217.181 371.4 216.932 370.174 216.646 368.958C216.092 366.615 215.383 364.301 214.496 362.061C214.407 361.831 214.313 361.606 214.219 361.376C214.237 361.418 214.237 361.413 214.186 361.301C214.195 361.324 214.205 361.352 214.219 361.376C214.19 361.31 214.115 361.132 214.101 361.099C214.04 360.958 213.975 360.812 213.914 360.672C213.674 360.141 213.425 359.615 213.167 359.099C212.651 358.071 212.092 357.071 211.491 356.094C210.899 355.136 210.256 354.211 209.575 353.319C209.627 353.385 209.65 353.418 209.557 353.291C209.561 353.3 209.571 353.31 209.575 353.319C209.538 353.272 209.491 353.207 209.463 353.174C209.383 353.07 209.298 352.967 209.214 352.864C209.026 352.629 208.829 352.394 208.636 352.169C208.27 351.737 207.89 351.314 207.5 350.906C206.716 350.08 205.885 349.291 205.016 348.549C204.81 348.375 204.603 348.202 204.397 348.032C204.275 347.934 204.157 347.84 204.035 347.746C204.031 347.741 204.016 347.732 204.002 347.718C204.045 347.751 204.068 347.77 203.998 347.713C203.899 347.638 203.96 347.685 204.002 347.718C203.955 347.68 203.876 347.624 203.862 347.61C203.397 347.258 202.922 346.915 202.434 346.586C201.444 345.915 200.415 345.3 199.359 344.737C198.814 344.446 198.265 344.173 197.706 343.91C197.443 343.788 197.176 343.666 196.908 343.549C196.871 343.535 196.636 343.431 196.594 343.413C196.617 343.422 196.641 343.431 196.664 343.441C196.589 343.408 196.575 343.403 196.594 343.413C196.462 343.356 196.326 343.305 196.195 343.248C193.692 342.239 191.086 341.497 188.438 340.967C187.748 340.826 187.053 340.704 186.358 340.596C186.199 340.572 186.039 340.549 185.88 340.525C185.837 340.521 185.654 340.492 185.588 340.483C185.607 340.483 185.621 340.488 185.64 340.488C185.551 340.478 185.551 340.478 185.588 340.483C185.246 340.436 184.898 340.398 184.556 340.361C183.236 340.22 181.912 340.135 180.584 340.117C179.307 340.098 178.029 340.14 176.757 340.243C176.151 340.295 175.546 340.356 174.94 340.436C175.015 340.427 175.048 340.422 174.898 340.441C174.912 340.441 174.926 340.436 174.94 340.436C174.87 340.445 174.766 340.459 174.719 340.469C174.579 340.488 174.433 340.511 174.292 340.535C173.968 340.586 173.649 340.643 173.325 340.699C170.954 341.135 168.63 341.807 166.386 342.69C166.151 342.783 165.916 342.877 165.686 342.976C165.729 342.957 165.724 342.957 165.616 343.004C165.639 342.995 165.663 342.985 165.686 342.976C165.621 343.004 165.437 343.084 165.4 343.098C165.254 343.164 165.109 343.225 164.963 343.291C164.419 343.535 163.883 343.793 163.348 344.065C162.282 344.61 161.24 345.197 160.221 345.831C159.198 346.469 158.198 347.155 157.226 347.873C157.113 347.958 157 348.042 156.883 348.126C156.846 348.155 156.733 348.239 156.686 348.277C156.7 348.263 156.719 348.253 156.733 348.239C156.648 348.305 156.648 348.305 156.686 348.277C156.446 348.465 156.202 348.652 155.968 348.845C155.489 349.23 155.014 349.629 154.554 350.033C152.653 351.69 150.873 353.483 149.207 355.375C147.38 357.446 146.042 359.174 144.488 361.395C141.291 365.958 138.558 370.836 136.159 375.865C134.882 378.536 133.784 381.062 132.737 383.677C131.629 386.438 130.6 389.227 129.643 392.044C127.708 397.725 126.051 403.495 124.609 409.321C123.206 415.002 122.008 420.735 120.99 426.496C120.506 429.233 120.065 431.979 119.661 434.731C119.562 435.397 119.468 436.064 119.375 436.731C119.332 437.041 119.29 437.346 119.248 437.656C119.21 437.938 119.238 437.736 119.243 437.675C119.253 437.759 119.238 437.848 119.229 437.933Z" fill="#180205" fill-opacity="1.000000" fill-rule="nonzero"/>
		<path id="Vector" d="M156.752 348.239C156.737 348.254 156.717 348.264 156.702 348.279C156.663 348.309 156.663 348.309 156.752 348.239Z" fill="#180205" fill-opacity="1.000000" fill-rule="nonzero"/>
		<path id="Vector" d="M174.949 340.432C174.935 340.432 174.921 340.437 174.906 340.437C175.053 340.418 175.025 340.423 174.949 340.432Z" fill="#180205" fill-opacity="1.000000" fill-rule="nonzero"/>
		<path id="Vector" d="M185.645 340.484C185.625 340.484 185.61 340.479 185.59 340.479C185.55 340.474 185.55 340.474 185.645 340.484Z" fill="#180205" fill-opacity="1.000000" fill-rule="nonzero"/>
		<path id="Vector" d="M335.271 596.354C314.148 595.584 297.25 586.753 294.945 584.448C292.64 582.142 290.719 579.837 290.334 566.015C289.949 552.188 290.334 542.587 290.334 542.587C303.391 544.122 304.927 535.676 311.457 528.76C317.988 521.844 326.693 520.91 327.97 520.694C331.82 520.046 342.947 538.361 354.083 549.113C365.22 559.865 380.582 560.635 380.582 571.771C380.587 587.523 356.393 597.124 335.271 596.354Z" fill="#F71F6A" fill-opacity="1.000000" fill-rule="nonzero"/>
		<path id="Vector" d="M335.271 596.354C314.148 595.584 297.25 586.753 294.945 584.448C292.682 582.185 290.795 579.917 290.363 566.776C316.073 569.733 313.251 582.988 340.261 584.448C359.849 585.504 373.779 576.532 380.545 570.851C380.568 571.151 380.587 571.457 380.587 571.771C380.587 587.523 356.393 597.124 335.271 596.354Z" fill="#FFFFFF" fill-opacity="1.000000" fill-rule="nonzero"/>
		<path id="Vector" d="M120.21 559.488C125.844 558.338 130.197 564.098 142.23 565.634C151.634 566.836 154.808 563.098 159.339 565.648C163.865 568.192 164.376 581.766 164.376 594.823C164.376 607.879 170.522 619.786 170.137 627.467C169.752 635.148 164.761 643.214 142.103 641.674C119.445 640.139 114.59 632.458 115.675 620.166C116.759 607.879 115.675 599.302 111.942 587.395C109.365 579.184 114.37 560.68 120.21 559.488Z" fill="#F71F6A" fill-opacity="1.000000" fill-rule="nonzero"/>
		<path id="Vector" d="M142.099 641.671C121.577 640.281 115.661 633.849 115.529 623.52C137.427 634.445 159.832 631.29 170.001 628.91C169.053 636.116 163.339 643.112 142.099 641.671Z" fill="#FFFFFF" fill-opacity="1.000000" fill-rule="nonzero"/>
		<path id="Vector" d="M131.408 565.457C129.436 564.625 127.544 563.63 125.755 562.457C125.121 562.039 124.854 561.212 125.248 560.531C125.619 559.902 126.535 559.607 127.173 560.024C133.07 563.898 140.113 565.79 147.16 565.457C149.113 565.363 151.043 565.086 152.944 564.64C153.686 564.466 154.47 564.87 154.677 565.625C154.874 566.339 154.437 567.184 153.691 567.358C146.296 569.091 138.413 568.41 131.408 565.457Z" fill="#180205" fill-opacity="1.000000" fill-rule="nonzero"/>
		<path id="Vector" d="M311.317 530.345C307.659 534.415 305.838 539.908 301.157 543.063C298.697 544.721 295.589 545.571 292.692 544.674C290.964 544.139 291.701 541.42 293.438 541.956C295.617 542.627 297.819 541.918 299.734 540.632C301.847 539.209 303.326 537.073 304.678 534.955C306.148 532.659 307.547 530.312 309.387 528.284C311.077 526.42 313.092 524.814 315.27 523.556C317.777 522.11 320.547 521.091 323.397 520.612C324.148 520.485 324.914 520.809 325.13 521.598C325.317 522.274 324.9 523.204 324.144 523.33C319.214 524.161 314.669 526.617 311.317 530.345Z" fill="#180205" fill-opacity="1.000000" fill-rule="nonzero"/>
		<path id="Vector" d="M76.0869 89.0417C75.9648 85.7739 72.7111 83.1633 69.5138 83.5671C69.1335 83.6143 68.8096 83.2104 68.8096 82.863C68.8096 82.4451 69.1335 82.2056 69.5138 82.1587C73.4952 81.6562 77.3451 85.0837 77.4954 89.0417C77.5282 89.9478 76.1197 89.9478 76.0869 89.0417Z" fill="#180205" fill-opacity="1.000000" fill-rule="nonzero"/>
		<path id="Vector" d="M108.675 93.1826C107.318 92.9338 106.515 91.1074 106.881 89.1121C107.252 87.1167 108.651 85.6987 110.008 85.9475C111.365 86.1963 112.168 88.0227 111.802 90.0181C111.435 92.0183 110.032 93.4314 108.675 93.1826Z" fill="#180205" fill-opacity="1.000000" fill-rule="nonzero"/>
		<path id="Vector" d="M108.821 91.541C108.821 92.0701 109.249 92.4988 109.778 92.4988C110.307 92.4988 110.736 92.0701 110.736 91.541C110.736 91.0122 110.307 90.5833 109.778 90.5833C109.249 90.5833 108.821 91.0122 108.821 91.541Z" fill="#FFFFFF" fill-opacity="1.000000" fill-rule="evenodd"/>
		<path id="Vector" d="M128.748 94.3179C128.023 96.2144 128.481 98.1519 129.772 98.6453C131.063 99.1389 132.698 98.0017 133.423 96.105C134.148 94.2085 133.689 92.271 132.398 91.7776C131.107 91.2839 129.473 92.4214 128.748 94.3179Z" fill="#180205" fill-opacity="1.000000" fill-rule="evenodd"/>
		<path id="Vector" d="M130.999 98.1467C130.478 98.0481 130.135 97.5505 130.229 97.0293C130.328 96.5083 130.826 96.1655 131.347 96.2593C131.868 96.3533 132.211 96.8557 132.117 97.3767C132.023 97.8979 131.521 98.2454 130.999 98.1467Z" fill="#FFFFFF" fill-opacity="1.000000" fill-rule="nonzero"/>
		<path id="Vector" d="M114.182 80.1938C113.623 79.1938 112.708 78.4285 111.6 78.114C110.388 77.7666 109.102 78.0059 108.05 78.6868C107.29 79.1797 106.581 77.9636 107.341 77.4707C108.694 76.5928 110.421 76.311 111.975 76.7571C113.421 77.1702 114.67 78.1702 115.398 79.4849C115.839 80.2783 114.623 80.9873 114.182 80.1938Z" fill="#180205" fill-opacity="1.000000" fill-rule="nonzero"/>
		<path id="Vector" d="M137.662 87.5764C137.103 86.5764 136.188 85.811 135.08 85.4966C133.868 85.1492 132.582 85.3884 131.53 86.0693C130.77 86.5623 130.061 85.3462 130.821 84.8533C132.173 83.9753 133.901 83.6936 135.455 84.1396C136.901 84.5527 138.15 85.5527 138.878 86.8674C139.319 87.6562 138.103 88.3699 137.662 87.5764Z" fill="#180205" fill-opacity="1.000000" fill-rule="nonzero"/>
		<path id="Vector" d="M123.394 104.536C123.262 104.269 123.145 103.996 123.027 103.729C123.29 103.667 123.553 103.592 123.816 103.503C123.675 103.851 123.534 104.193 123.394 104.536Z" fill="#180205" fill-opacity="1.000000" fill-rule="nonzero"/>
		<path id="Vector" d="M124.192 104.86C122.718 105.362 121.173 105.461 119.643 105.212C118.75 105.067 119.131 103.71 120.018 103.855C121.032 104.02 122.046 103.963 123.032 103.729C123.15 104.001 123.267 104.273 123.398 104.536C123.539 104.193 123.68 103.846 123.821 103.503C123.563 103.592 123.3 103.667 123.032 103.729C121.826 100.963 121.253 97.9536 121.427 94.9299C121.478 94.0286 122.887 94.0239 122.835 94.9299C122.661 98.0005 123.258 101.066 124.619 103.827C124.821 104.25 124.643 104.71 124.192 104.86Z" fill="#180205" fill-opacity="1.000000" fill-rule="nonzero"/>
		<path id="Vector" d="M108.736 109.862C108.158 109.171 109.149 108.171 109.731 108.866C111.966 111.524 115.647 112.744 119.018 111.866C119.896 111.636 120.271 112.998 119.393 113.223C115.572 114.219 111.29 112.895 108.736 109.862Z" fill="#180205" fill-opacity="1.000000" fill-rule="nonzero"/>
		<path id="Vector" d="M90.3829 124.759C98.51 133.209 111.938 133.59 111.938 133.59L112.318 142.924C92.9418 139.928 90.3829 124.759 90.3829 124.759Z" fill="#180205" fill-opacity="1.000000" fill-rule="nonzero"/>
		<path id="Vector" d="M219.388 230.968C222.788 231.818 226.37 231.747 229.75 230.841C231.502 230.372 232.253 233.09 230.497 233.56C224.144 235.264 217.041 234.306 211.604 230.503C206.707 227.08 203.467 221.634 203.651 215.554C203.754 212.146 204.899 208.901 207.05 206.249C207.529 205.657 208.543 205.751 209.04 206.249C209.623 206.831 209.519 207.648 209.04 208.239C205.918 212.089 205.698 217.897 207.909 222.226C210.191 226.695 214.581 229.761 219.388 230.968Z" fill="#180205" fill-opacity="1.000000" fill-rule="nonzero"/>
	</g>
</svg>
