<svg width="32.000000" height="32.000000" viewBox="0 0 32 32" fill="none" xmlns="http://www.w3.org/2000/svg" xmlns:xlink="http://www.w3.org/1999/xlink">
	<desc>
			Created with Pixso.
	</desc>
	<defs>
		<clipPath id="clip1005_5748">
			<rect id="right-chevron (1) 1" width="16.000000" height="16.000000" transform="translate(8.000000 8.000000)" fill="white" fill-opacity="0"/>
		</clipPath>
	</defs>
	<circle id="background" cx="16.000000" cy="16.000000" r="16.000000" fill="#3F51B5" fill-opacity="1.000000"/>
	<rect id="right-chevron (1) 1" width="16.000000" height="16.000000" transform="translate(8.000000 8.000000)" fill="#FFFFFF" fill-opacity="0"/>
	<g clip-path="url(#clip1005_5748)">
		<path id="Vector" d="M19.1667 16.4402L13.8334 22.4402C13.7166 22.5725 13.552 22.6533 13.3758 22.6646C13.1996 22.6758 13.0261 22.6167 12.8934 22.5C12.7609 22.3833 12.6802 22.2188 12.669 22.0425C12.6577 21.8662 12.7168 21.6929 12.8334 21.5601L17.7734 16L12.8334 10.4402C12.7256 10.3064 12.6737 10.136 12.6883 9.96484C12.703 9.7937 12.7832 9.63501 12.9122 9.52148C13.0411 9.40796 13.2089 9.34863 13.3805 9.35571C13.5522 9.36304 13.7144 9.43628 13.8334 9.56006L19.1667 15.5601C19.2736 15.6816 19.3325 15.8381 19.3325 16C19.3325 16.1621 19.2736 16.3184 19.1667 16.4402Z" fill="#FFFFFF" fill-opacity="1.000000" fill-rule="nonzero"/>
	</g>
</svg>
