<svg width="24.000000" height="24.000000" viewBox="0 0 24 24" fill="none" xmlns="http://www.w3.org/2000/svg" xmlns:xlink="http://www.w3.org/1999/xlink">
	<desc>
			Created with Pixso.
	</desc>
	<defs/>
	<path id="Vector" d="M3 18.5L3 5C3 4.20435 3.31604 3.44128 3.87866 2.87866C4.44128 2.31604 5.20435 2 6 2L20 2C20.2653 2 20.5195 2.10535 20.7072 2.29285C20.8947 2.48047 21 2.73474 21 3L21 21C21 21.2653 20.8947 21.5195 20.7072 21.7072C20.5195 21.8947 20.2653 22 20 22L6.5 22C5.57178 22 4.68152 21.6312 4.02515 20.9749C3.36877 20.3185 3 19.4282 3 18.5ZM19 20L19 17L6.5 17C6.10217 17 5.7207 17.1581 5.43933 17.4393C5.15808 17.7207 5 18.1022 5 18.5C5 18.8978 5.15808 19.2793 5.43933 19.5607C5.7207 19.8419 6.10217 20 6.5 20L19 20ZM10 4L6 4C5.73474 4 5.48047 4.10535 5.29285 4.29285C5.10535 4.48047 5 4.73474 5 5L5 15.337C5.46875 15.1144 5.9812 14.9993 6.5 15L19 15L19 4L17 4L17 12L13.5 10L10 12L10 4Z" fill="#3F51B5" fill-opacity="1.000000" fill-rule="nonzero"/>
</svg>
