<svg width="20.000000" height="15.000000" viewBox="0 0 20 15" fill="none" xmlns="http://www.w3.org/2000/svg" xmlns:xlink="http://www.w3.org/1999/xlink">
	<desc>
			Created with Pixso.
	</desc>
	<defs>
		<clipPath id="clip9_7644">
			<rect id="Frame" rx="2.000000" width="20.000000" height="15.000000" fill="white" fill-opacity="0"/>
		</clipPath>
	</defs>
	<rect id="Frame" rx="2.000000" width="20.000000" height="15.000000" fill="#FFFFFF" fill-opacity="0"/>
	<g clip-path="url(#clip9_7644)">
		<path id="Vector" d="M0 10L20 10L20 15L0 15L0 10Z" fill="#1EB53A" fill-opacity="1.000000" fill-rule="nonzero"/>
		<path id="Vector" d="M0 0L20 0L20 5L0 5L0 0Z" fill="#0099B5" fill-opacity="1.000000" fill-rule="nonzero"/>
		<path id="Vector" d="M0 4.7998L20 4.7998L20 10.1997L0 10.1997L0 4.7998Z" fill="#CE1126" fill-opacity="1.000000" fill-rule="nonzero"/>
		<path id="Vector" d="M0 5.1001L20 5.1001L20 9.90015L0 9.90015L0 5.1001Z" fill="#FFFFFF" fill-opacity="1.000000" fill-rule="nonzero"/>
		<path id="Vector" d="M5.9999 2.40015C5.9999 3.39429 5.19402 4.2002 4.1999 4.2002C3.20579 4.2002 2.3999 3.39429 2.3999 2.40015C2.3999 1.40601 3.20579 0.600098 4.1999 0.600098C5.19402 0.600098 5.9999 1.40601 5.9999 2.40015Z" fill="#FFFFFF" fill-opacity="1.000000" fill-rule="evenodd"/>
		<path id="Vector" d="M6.60001 2.40015C6.60001 3.39429 5.79412 4.2002 4.80001 4.2002C3.80589 4.2002 3 3.39429 3 2.40015C3 1.40601 3.80589 0.600098 4.80001 0.600098C5.79412 0.600098 6.60001 1.40601 6.60001 2.40015Z" fill="#0099B5" fill-opacity="1.000000" fill-rule="evenodd"/>
		<path id="a" d="M8.15942 3.48047L8.04541 3.82251L8.21942 3.88257L8.15942 3.48047Z" fill="#FFFFFF" fill-opacity="1.000000" fill-rule="nonzero"/>
		<path id="a" d="M8.15942 3.48047L8.04541 3.82251L8.21942 3.88257L8.15942 3.48047Z" fill="#FFFFFF" fill-opacity="1.000000" fill-rule="nonzero"/>
		<path id="a" d="M8.15942 3.48047L8.04541 3.82251L8.21942 3.88257L8.15942 3.48047Z" fill="#FFFFFF" fill-opacity="1.000000" fill-rule="nonzero"/>
		<path id="a" d="M8.15942 3.48047L8.04541 3.82251L8.21942 3.88257L8.15942 3.48047Z" fill="#FFFFFF" fill-opacity="1.000000" fill-rule="nonzero"/>
		<path id="a" d="M8.15942 3.48047L8.04541 3.82251L8.21942 3.88257L8.15942 3.48047Z" fill="#FFFFFF" fill-opacity="1.000000" fill-rule="nonzero"/>
		<path id="a" d="M8.15942 3.48047L8.04541 3.82251L8.21942 3.88257L8.15942 3.48047Z" fill="#FFFFFF" fill-opacity="1.000000" fill-rule="nonzero"/>
		<path id="a" d="M8.15942 3.48047L8.04541 3.82251L8.21942 3.88257L8.15942 3.48047Z" fill="#FFFFFF" fill-opacity="1.000000" fill-rule="nonzero"/>
		<path id="a" d="M8.15942 3.48047L8.04541 3.82251L8.21942 3.88257L8.15942 3.48047Z" fill="#FFFFFF" fill-opacity="1.000000" fill-rule="nonzero"/>
		<path id="a" d="M8.15942 3.48047L8.04541 3.82251L8.21942 3.88257L8.15942 3.48047Z" fill="#FFFFFF" fill-opacity="1.000000" fill-rule="nonzero"/>
		<path id="a" d="M8.15942 3.48047L8.04541 3.82251L8.21942 3.88257L8.15942 3.48047Z" fill="#FFFFFF" fill-opacity="1.000000" fill-rule="nonzero"/>
		<path id="a" d="M8.15942 3.48047L8.04541 3.82251L8.21942 3.88257L8.15942 3.48047Z" fill="#FFFFFF" fill-opacity="1.000000" fill-rule="nonzero"/>
		<path id="a" d="M8.15942 3.48047L8.04541 3.82251L8.21942 3.88257L8.15942 3.48047Z" fill="#FFFFFF" fill-opacity="1.000000" fill-rule="nonzero"/>
		<path id="a" d="M8.15942 3.48047L8.04541 3.82251L8.21942 3.88257L8.15942 3.48047Z" fill="#FFFFFF" fill-opacity="1.000000" fill-rule="nonzero"/>
		<path id="a" d="M8.15942 3.48047L8.04541 3.82251L8.21942 3.88257L8.15942 3.48047Z" fill="#FFFFFF" fill-opacity="1.000000" fill-rule="nonzero"/>
		<path id="a" d="M8.15942 3.48047L8.04541 3.82251L8.21942 3.88257L8.15942 3.48047Z" fill="#FFFFFF" fill-opacity="1.000000" fill-rule="nonzero"/>
		<path id="a" d="M8.15942 3.48047L8.04541 3.82251L8.21942 3.88257L8.15942 3.48047Z" fill="#FFFFFF" fill-opacity="1.000000" fill-rule="nonzero"/>
		<path id="a" d="M8.15942 3.48047L8.04541 3.82251L8.21942 3.88257L8.15942 3.48047Z" fill="#FFFFFF" fill-opacity="1.000000" fill-rule="nonzero"/>
		<path id="a" d="M8.15942 3.48047L8.04541 3.82251L8.21942 3.88257L8.15942 3.48047Z" fill="#FFFFFF" fill-opacity="1.000000" fill-rule="nonzero"/>
		<path id="a" d="M8.15942 3.48047L8.04541 3.82251L8.21942 3.88257L8.15942 3.48047Z" fill="#FFFFFF" fill-opacity="1.000000" fill-rule="nonzero"/>
		<path id="a" d="M8.15942 3.48047L8.04541 3.82251L8.21942 3.88257L8.15942 3.48047Z" fill="#FFFFFF" fill-opacity="1.000000" fill-rule="nonzero"/>
		<path id="a" d="M8.15942 3.48047L8.04541 3.82251L8.21942 3.88257L8.15942 3.48047Z" fill="#FFFFFF" fill-opacity="1.000000" fill-rule="nonzero"/>
		<path id="a" d="M8.15942 3.48047L8.04541 3.82251L8.21942 3.88257L8.15942 3.48047Z" fill="#FFFFFF" fill-opacity="1.000000" fill-rule="nonzero"/>
		<path id="a" d="M8.15942 3.48047L8.04541 3.82251L8.21942 3.88257L8.15942 3.48047Z" fill="#FFFFFF" fill-opacity="1.000000" fill-rule="nonzero"/>
		<path id="a" d="M8.15942 3.48047L8.04541 3.82251L8.21942 3.88257L8.15942 3.48047Z" fill="#FFFFFF" fill-opacity="1.000000" fill-rule="nonzero"/>
		<path id="a" d="M8.15942 3.48047L8.04541 3.82251L8.21942 3.88257L8.15942 3.48047Z" fill="#FFFFFF" fill-opacity="1.000000" fill-rule="nonzero"/>
		<path id="a" d="M8.15942 3.48047L8.04541 3.82251L8.21942 3.88257L8.15942 3.48047Z" fill="#FFFFFF" fill-opacity="1.000000" fill-rule="nonzero"/>
		<path id="a" d="M8.15942 3.48047L8.04541 3.82251L8.21942 3.88257L8.15942 3.48047Z" fill="#FFFFFF" fill-opacity="1.000000" fill-rule="nonzero"/>
		<path id="a" d="M8.15942 3.48047L8.04541 3.82251L8.21942 3.88257L8.15942 3.48047Z" fill="#FFFFFF" fill-opacity="1.000000" fill-rule="nonzero"/>
		<path id="a" d="M8.15942 3.48047L8.04541 3.82251L8.21942 3.88257L8.15942 3.48047Z" fill="#FFFFFF" fill-opacity="1.000000" fill-rule="nonzero"/>
		<path id="a" d="M8.15942 3.48047L8.04541 3.82251L8.21942 3.88257L8.15942 3.48047Z" fill="#FFFFFF" fill-opacity="1.000000" fill-rule="nonzero"/>
		<path id="a" d="M8.15942 3.48047L8.04541 3.82251L8.21942 3.88257L8.15942 3.48047Z" fill="#FFFFFF" fill-opacity="1.000000" fill-rule="nonzero"/>
		<path id="a" d="M8.15942 3.48047L8.04541 3.82251L8.21942 3.88257L8.15942 3.48047Z" fill="#FFFFFF" fill-opacity="1.000000" fill-rule="nonzero"/>
		<path id="a" d="M8.15942 3.48047L8.04541 3.82251L8.21942 3.88257L8.15942 3.48047Z" fill="#FFFFFF" fill-opacity="1.000000" fill-rule="nonzero"/>
		<path id="a" d="M8.15942 3.48047L8.04541 3.82251L8.21942 3.88257L8.15942 3.48047Z" fill="#FFFFFF" fill-opacity="1.000000" fill-rule="nonzero"/>
		<path id="a" d="M8.15942 3.48047L8.04541 3.82251L8.21942 3.88257L8.15942 3.48047Z" fill="#FFFFFF" fill-opacity="1.000000" fill-rule="nonzero"/>
		<path id="a" d="M8.15942 3.48047L8.04541 3.82251L8.21942 3.88257L8.15942 3.48047Z" fill="#FFFFFF" fill-opacity="1.000000" fill-rule="nonzero"/>
		<path id="a" d="M8.15942 3.48047L8.04541 3.82251L8.21942 3.88257L8.15942 3.48047Z" fill="#FFFFFF" fill-opacity="1.000000" fill-rule="nonzero"/>
		<path id="a" d="M8.15942 3.48047L8.04541 3.82251L8.21942 3.88257L8.15942 3.48047Z" fill="#FFFFFF" fill-opacity="1.000000" fill-rule="nonzero"/>
		<path id="a" d="M8.15942 3.48047L8.04541 3.82251L8.21942 3.88257L8.15942 3.48047Z" fill="#FFFFFF" fill-opacity="1.000000" fill-rule="nonzero"/>
		<path id="a" d="M8.15942 3.48047L8.04541 3.82251L8.21942 3.88257L8.15942 3.48047Z" fill="#FFFFFF" fill-opacity="1.000000" fill-rule="nonzero"/>
		<path id="a" d="M8.15942 3.48047L8.04541 3.82251L8.21942 3.88257L8.15942 3.48047Z" fill="#FFFFFF" fill-opacity="1.000000" fill-rule="nonzero"/>
		<path id="a" d="M8.15942 3.48047L8.04541 3.82251L8.21942 3.88257L8.15942 3.48047Z" fill="#FFFFFF" fill-opacity="1.000000" fill-rule="nonzero"/>
		<path id="a" d="M8.15942 3.48047L8.04541 3.82251L8.21942 3.88257L8.15942 3.48047Z" fill="#FFFFFF" fill-opacity="1.000000" fill-rule="nonzero"/>
		<path id="a" d="M8.15942 3.48047L8.04541 3.82251L8.21942 3.88257L8.15942 3.48047Z" fill="#FFFFFF" fill-opacity="1.000000" fill-rule="nonzero"/>
		<path id="a" d="M8.15942 3.48047L8.04541 3.82251L8.21942 3.88257L8.15942 3.48047Z" fill="#FFFFFF" fill-opacity="1.000000" fill-rule="nonzero"/>
		<path id="a" d="M8.15942 3.48047L8.04541 3.82251L8.21942 3.88257L8.15942 3.48047Z" fill="#FFFFFF" fill-opacity="1.000000" fill-rule="nonzero"/>
		<path id="a" d="M8.15942 3.48047L8.04541 3.82251L8.21942 3.88257L8.15942 3.48047Z" fill="#FFFFFF" fill-opacity="1.000000" fill-rule="nonzero"/>
		<path id="a" d="M8.15942 3.48047L8.04541 3.82251L8.21942 3.88257L8.15942 3.48047Z" fill="#FFFFFF" fill-opacity="1.000000" fill-rule="nonzero"/>
		<path id="a" d="M8.15942 3.48047L8.04541 3.82251L8.21942 3.88257L8.15942 3.48047Z" fill="#FFFFFF" fill-opacity="1.000000" fill-rule="nonzero"/>
		<path id="a" d="M8.15942 3.48047L8.04541 3.82251L8.21942 3.88257L8.15942 3.48047Z" fill="#FFFFFF" fill-opacity="1.000000" fill-rule="nonzero"/>
		<path id="a" d="M8.15942 3.48047L8.04541 3.82251L8.21942 3.88257L8.15942 3.48047Z" fill="#FFFFFF" fill-opacity="1.000000" fill-rule="nonzero"/>
		<path id="a" d="M8.15942 3.48047L8.04541 3.82251L8.21942 3.88257L8.15942 3.48047Z" fill="#FFFFFF" fill-opacity="1.000000" fill-rule="nonzero"/>
		<path id="a" d="M8.15942 3.48047L8.04541 3.82251L8.21942 3.88257L8.15942 3.48047Z" fill="#FFFFFF" fill-opacity="1.000000" fill-rule="nonzero"/>
		<path id="a" d="M8.15942 3.48047L8.04541 3.82251L8.21942 3.88257L8.15942 3.48047Z" fill="#FFFFFF" fill-opacity="1.000000" fill-rule="nonzero"/>
		<path id="a" d="M8.15942 3.48047L8.04541 3.82251L8.21942 3.88257L8.15942 3.48047Z" fill="#FFFFFF" fill-opacity="1.000000" fill-rule="nonzero"/>
		<path id="a" d="M8.15942 3.48047L8.04541 3.82251L8.21942 3.88257L8.15942 3.48047Z" fill="#FFFFFF" fill-opacity="1.000000" fill-rule="nonzero"/>
		<path id="a" d="M8.15942 3.48047L8.04541 3.82251L8.21942 3.88257L8.15942 3.48047Z" fill="#FFFFFF" fill-opacity="1.000000" fill-rule="nonzero"/>
		<path id="a" d="M8.15942 3.48047L8.04541 3.82251L8.21942 3.88257L8.15942 3.48047Z" fill="#FFFFFF" fill-opacity="1.000000" fill-rule="nonzero"/>
		<path id="a" d="M8.15942 3.48047L8.04541 3.82251L8.21942 3.88257L8.15942 3.48047Z" fill="#FFFFFF" fill-opacity="1.000000" fill-rule="nonzero"/>
		<path id="a" d="M8.15942 3.48047L8.04541 3.82251L8.21942 3.88257L8.15942 3.48047Z" fill="#FFFFFF" fill-opacity="1.000000" fill-rule="nonzero"/>
	</g>
</svg>
