<svg width="24.000000" height="24.000000" viewBox="0 0 24 24" fill="none" xmlns="http://www.w3.org/2000/svg" xmlns:xlink="http://www.w3.org/1999/xlink">
	<desc>
			Created with Pixso.
	</desc>
	<defs>
		<clipPath id="clip9_4977">
			<rect id="love 1" width="24.000000" height="24.000000" fill="white" fill-opacity="0"/>
		</clipPath>
	</defs>
	<rect id="love 1" width="24.000000" height="24.000000" fill="#FFFFFF" fill-opacity="0"/>
	<g clip-path="url(#clip9_4977)">
		<path id="Vector" d="M20.5205 4.27344C19.9937 3.74658 19.3682 3.32837 18.6797 3.04321C17.9913 2.75806 17.2535 2.61133 16.5083 2.61133C15.7632 2.61133 15.0253 2.75806 14.3369 3.04321C13.6485 3.32837 13.023 3.74658 12.4961 4.27344L12 4.76953L11.5039 4.27344C10.9771 3.74658 10.3516 3.32837 9.66315 3.04321C8.97472 2.75806 8.23687 2.61133 7.49171 2.61133C6.74656 2.61133 6.00871 2.75806 5.32028 3.04321C4.63187 3.32837 4.00636 3.74658 3.47951 4.27344C1.77834 5.97412 1.48151 8.59424 2.68651 11.2827C4.15526 14.561 11.0342 20.8608 11.3262 21.1274C11.5103 21.2954 11.7507 21.3887 12 21.3887C12.2493 21.3887 12.4896 21.2954 12.6738 21.1274C12.9658 20.8608 19.8447 14.561 21.3135 11.2822C22.5186 8.59424 22.2217 5.97412 20.5205 4.27344ZM19.4893 10.4644C18.5195 12.6274 14.2402 16.915 12 19.0244C9.75978 16.915 5.48146 12.6289 4.51076 10.4648C4.10255 9.55225 3.3213 7.25977 4.89356 5.6875C5.58264 4.99854 6.51722 4.61133 7.49171 4.61133C8.4662 4.61133 9.40078 4.99854 10.0899 5.6875L11.293 6.89062C11.3858 6.9834 11.4961 7.05713 11.6174 7.10742C11.7387 7.15771 11.8687 7.18359 12 7.18359C12.1314 7.18359 12.2614 7.15771 12.3827 7.10742C12.504 7.05713 12.6142 6.9834 12.7071 6.89062L13.9102 5.6875C14.6103 5.01978 15.5407 4.64697 16.5083 4.64697C17.4759 4.64697 18.4063 5.01978 19.1065 5.6875C20.6787 7.25977 19.8975 9.55225 19.4893 10.4644Z" fill="#242424" fill-opacity="1.000000" fill-rule="nonzero"/>
	</g>
</svg>
