<svg width="24.000000" height="24.000000" viewBox="0 0 24 24" fill="none" xmlns="http://www.w3.org/2000/svg" xmlns:xlink="http://www.w3.org/1999/xlink">
	<desc>
			Created with Pixso.
	</desc>
	<defs>
		<clipPath id="clip1078_6574">
			<rect id="tag-outline" width="24.000000" height="24.000000" fill="white" fill-opacity="0"/>
		</clipPath>
	</defs>
	<g clip-path="url(#clip1078_6574)">
		<path id="coolicon" d="M12.8971 21.968C12.3661 21.9696 11.8564 21.7585 11.4821 21.382L3.64807 13.547C3.23462 13.1348 3.02271 12.562 3.06812 11.98L3.56812 5.41406C3.6394 4.42639 4.42627 3.6416 5.41406 3.573L11.9801 3.073C12.031 3.06201 12.083 3.06201 12.134 3.06201C12.6639 3.06335 13.1718 3.27405 13.547 3.64807L21.3821 11.4821C21.7573 11.8571 21.9681 12.366 21.9681 12.8965C21.9681 13.4271 21.7573 13.9359 21.3821 14.311L14.311 21.382C13.9369 21.7583 13.4277 21.9694 12.8971 21.968ZM12.1331 5.06201L5.56201 5.56201L5.06201 12.1331L12.8971 19.968L19.967 12.8981L12.1331 5.06201ZM8.65405 10.6541C7.69995 10.6542 6.87842 9.98035 6.69214 9.04456C6.50586 8.10876 7.00647 7.17175 7.88794 6.8064C8.76941 6.44104 9.78613 6.74927 10.3164 7.5426C10.8466 8.33582 10.7427 9.39319 10.0681 10.068C9.69385 10.4443 9.18469 10.6554 8.65405 10.6541Z" fill="#3F51B5" fill-opacity="1.000000" fill-rule="nonzero"/>
	</g>
</svg>
