<svg width="60.585449" height="18.000000" viewBox="0 0 60.5854 18" fill="none" xmlns="http://www.w3.org/2000/svg" xmlns:xlink="http://www.w3.org/1999/xlink">
	<desc>
			Created with Pixso.
	</desc>
	<defs>
		<clipPath id="clip1089_7837">
			<rect id="payme_01 1" width="60.585365" height="18.000000" fill="white" fill-opacity="0"/>
		</clipPath>
		<linearGradient id="paint_linear_1089_7842_0" x1="69.941849" y1="5.667178" x2="66.233810" y2="28.480104" gradientUnits="userSpaceOnUse">
			<stop offset="0.472310" stop-color="#00CCCC"/>
			<stop offset="1.000000" stop-color="#3399FF"/>
		</linearGradient>
	</defs>
	<rect id="payme_01 1" width="60.585365" height="18.000000" fill="#FFFFFF" fill-opacity="0"/>
	<g clip-path="url(#clip1089_7837)">
		<path id="Vector" d="M60.2446 7.45605C60.6738 8.08179 60.7168 9.06763 60.2612 9.83154C59.855 10.5139 57.4209 13.1326 56.6284 13.9741C55.9419 14.7051 55.0151 15.437 54.103 15.437L35.0044 15.437C32.4233 15.437 32.2676 14.5457 32.2676 12.53L32.2676 4.35449C32.2676 2.29614 32.8638 1.70117 34.6265 1.70117L54.103 1.70117C55.0151 1.70117 55.8271 2.17554 56.7593 3.14111C57.5508 3.96069 59.9155 6.97485 60.2446 7.45605Z" fill="#33CCCC" fill-opacity="1.000000" fill-rule="evenodd"/>
		<path id="Vector" d="M60.2446 7.45605C60.6738 8.08179 60.7168 9.06763 60.2612 9.83154C59.855 10.5139 57.4209 13.1326 56.6284 13.9741C55.9419 14.7051 55.0151 15.437 54.103 15.437L35.0044 15.437C32.4233 15.437 32.2676 14.5457 32.2676 12.53L32.2676 4.35449C32.2676 2.29614 32.8638 1.70117 34.6265 1.70117L54.103 1.70117C55.0151 1.70117 55.8271 2.17554 56.7593 3.14111C57.5508 3.96069 59.9155 6.97485 60.2446 7.45605Z" fill="url(#paint_linear_1089_7842_0)" fill-opacity="1.000000" fill-rule="evenodd"/>
		<path id="Vector" d="M36.5972 4.8623L36.5972 4.80859C36.5972 4.54565 36.5757 4.28589 36.1528 4.28589L34.5566 4.28589C34.1855 4.28589 34.1621 4.49487 34.1621 4.81958L34.1621 6.98022C34.939 5.84839 35.8008 5.32251 36.5972 4.8623ZM47.3047 12.6694L47.3047 12.5535L47.3057 12.5535L47.3057 7.35327C47.3057 5.17236 46.3647 4.08228 44.4824 4.08252C43.9609 4.07739 43.4482 4.22021 43.0015 4.49487C42.5532 4.76978 42.123 5.15405 41.71 5.64746C41.5068 5.11133 41.2007 4.71655 40.7915 4.46289C40.3823 4.20923 39.8521 4.08252 39.2012 4.08252C38.4473 4.08252 37.5708 4.35132 36.9497 4.87183C36.811 5.01367 34.1621 7.13745 34.1621 9.31885L34.1621 12.6482C34.1621 12.7542 34.1118 13.1558 34.5537 13.1558L36.2153 13.1558C36.7319 13.1558 36.6812 12.8113 36.6812 12.6694L36.6812 7.28491C36.9619 6.90601 37.5352 5.96997 38.4658 5.96997C38.8232 5.96997 39.0806 6.09302 39.2378 6.33936C39.395 6.58569 39.4741 6.99878 39.4746 7.57837L39.4746 11.7842L39.4727 11.7842L39.4727 12.6484C39.4727 12.7542 39.4224 13.156 39.8643 13.156L41.5049 13.156C42.0215 13.156 41.9712 12.8113 41.9712 12.6697L41.9712 12.5537L41.9731 12.5537L41.9731 7.28516C42.2734 6.90601 42.8726 5.97021 43.7568 5.97021C44.1211 5.97021 44.3833 6.09326 44.5444 6.3396C44.7056 6.58594 44.7856 6.99902 44.7856 7.57861L44.7856 11.7844L44.7842 11.7844L44.7842 12.6487C44.7842 12.7544 44.7339 13.1562 45.1763 13.1562L46.8384 13.1562C47.355 13.156 47.3047 12.8113 47.3047 12.6694ZM56.4561 10.5552C55.8652 12.1743 54.4497 13.0793 52.6963 13.0793C50.1562 13.0793 48.478 11.3162 48.478 8.67163C48.478 6.05908 50.2202 4.16553 52.6172 4.16553C54.9883 4.16553 56.5786 5.84766 56.6797 8.55737C56.6924 8.90356 56.5933 9.20947 56.1685 9.20947L50.7788 9.20947C50.8105 10.6626 51.4985 11.4463 52.7124 11.4463C53.4531 11.4463 53.8916 11.1211 54.2734 10.4839C54.4399 10.2065 54.7803 10.2219 54.7803 10.2219L56.1685 10.2219C56.3955 10.2217 56.4956 10.4473 56.4561 10.5552L56.4561 10.5552ZM52.6172 5.84668C51.6094 5.84668 50.9067 6.56494 50.7788 7.74097L54.3901 7.74097C54.2944 6.7124 53.751 5.84668 52.6172 5.84668Z" fill="#FFFFFF" fill-opacity="1.000000" fill-rule="evenodd"/>
		<path id="Vector" d="M9.92041 1.77612C9.70703 1.42944 9.43018 1.12793 9.10449 0.888184C8.7793 0.655273 8.42188 0.472656 8.04443 0.346436C7.625 0.207275 7.19141 0.115479 6.75244 0.072998C6.25 0.0227051 5.74512 -0.00170898 5.24072 0L0.815918 0C0.418457 0 0.000976562 0.266357 0.000976562 0.768311L0.000976562 8.07617C0.561523 9.29419 1.65332 10.5874 2.89453 11.2053L2.89453 9.75586C2.89453 8.99121 3.45996 8.82031 3.69385 8.82031L5.00244 8.82031C6.8042 8.82031 8.17969 8.43481 9.12842 7.66382C10.0771 6.89404 10.5513 5.75049 10.5513 4.2334C10.5542 3.79492 10.5039 3.35791 10.4028 2.93188C10.3018 2.52344 10.1392 2.13354 9.92041 1.77612ZM7.34229 5.5293C7.18945 5.79932 6.96143 6.01733 6.6875 6.15576C6.39014 6.30005 6.06934 6.38672 5.74072 6.41113C5.3833 6.4436 5.01416 6.45996 4.6333 6.45996L3.39014 6.45996C3.08594 6.45996 2.89453 6.20776 2.89453 5.83569L2.89453 2.8479C2.89453 2.51294 3.10938 2.37231 3.36621 2.37231L4.6333 2.37231C5.0459 2.37231 5.43262 2.38428 5.79395 2.40869C6.11914 2.42383 6.43848 2.5022 6.73486 2.64014C6.99902 2.76807 7.21729 2.97632 7.36035 3.23608C7.51074 3.50342 7.58594 3.88062 7.58643 4.36768C7.58643 4.86206 7.50488 5.24927 7.34229 5.5293ZM2.89453 11.6775C1.5293 11.1218 0.614258 10.459 0.000976562 9.802L0.000976562 13.3298C0.000976562 13.3298 -0.0493164 13.9053 0.500488 13.9053L2.43066 13.9053C2.96045 13.9053 2.89502 13.3298 2.89502 13.3298L2.89502 11.6775L2.89453 11.6775ZM30.2505 3.84473L28.5181 3.84473C28.166 3.84473 27.9341 3.99536 27.7944 4.38965C27.6548 4.78418 25.8184 9.99341 25.8184 9.99341C25.8184 9.99341 24.062 4.89185 23.9238 4.49683C23.7856 4.10181 23.5586 3.84473 23.1499 3.84473L21.5581 3.84473C20.9966 3.84473 20.9966 4.29395 21.0659 4.47217C21.1226 4.61621 23.3022 10.7021 24.1323 13.0208C24.3281 13.5681 24.4058 13.7329 24.4116 13.9355C24.418 14.1384 24.2153 14.5642 24.0757 14.8086C24.0112 14.9199 23.9375 15.0256 23.855 15.124C25.4829 14.6274 27.3589 12.8262 28.3286 10.875C29.2881 8.15552 30.5532 4.56299 30.6079 4.37915C30.6963 4.08154 30.6953 3.84473 30.2505 3.84473ZM22.6011 15.6414C22.4507 15.6387 22.3003 15.6277 22.1514 15.6084C21.9688 15.5837 21.627 15.6184 21.627 15.9233L21.627 17.2859C21.627 17.8057 21.8711 17.8406 22.0054 17.8713C22.4097 17.957 22.8218 17.9976 23.2349 17.9922C23.7822 17.9922 24.2583 17.8909 24.6636 17.688C25.0723 17.4819 25.437 17.1943 25.7354 16.8425C26.0645 16.4509 26.3428 16.0176 26.563 15.5535C26.8047 15.0547 27.0371 14.5054 27.2593 13.9053C27.2593 13.9053 27.355 13.634 27.5117 13.1897C27.0342 13.6812 24.7817 15.8567 22.6011 15.6414ZM19.9995 5.46191C19.9053 5.23438 19.7769 5.02295 19.6187 4.83569C19.4614 4.65601 19.2808 4.49829 19.0825 4.36719C18.8682 4.22534 18.6411 4.10522 18.4043 4.0083C18.1621 3.91187 17.9136 3.83472 17.6597 3.77734C17.3716 3.71313 17.0791 3.67041 16.7847 3.64966C16.4668 3.62549 16.1094 3.61328 15.7129 3.61328C13.0884 3.61328 11.5942 4.45801 11.2295 6.14795C11.1113 6.67212 11.6206 6.70312 11.6206 6.70312L13.2349 6.70312C13.6562 6.70312 13.6382 6.5647 13.8428 6.17651C13.9165 5.96509 14.0488 5.78052 14.2241 5.64478C14.5342 5.40161 14.9985 5.28003 15.6172 5.28003C16.2129 5.28003 16.6455 5.39746 16.9155 5.63232C17.1851 5.86743 17.3438 6.22412 17.3916 6.70312C17.3916 7.2583 17.2217 7.62866 16.5625 7.62866C14.9561 7.56934 13.23 7.75439 12.2578 8.32227C11.2852 8.89014 10.7358 10.0002 10.7358 11.1924C10.7358 11.6787 10.8213 12.1045 10.9917 12.4697C11.1572 12.8279 11.4019 13.1423 11.7065 13.3879C12.0298 13.6448 12.3999 13.833 12.7959 13.9417C13.2456 14.0671 13.7104 14.1289 14.1768 14.1245C14.8755 14.1245 15.4927 14.0352 16.0288 13.8567C16.5645 13.6785 17.3936 13.0911 17.499 13.0054L17.499 13.3184C17.499 13.6289 17.5918 13.9055 17.9556 13.9055L19.833 13.9055C20.2129 13.9055 20.2974 13.6289 20.2974 13.2881L20.2974 7.39673C20.3008 7.03052 20.2769 6.66455 20.2261 6.302C20.1855 6.01343 20.1094 5.7312 19.9995 5.46191ZM17.4395 11.2383C17.4395 11.2383 16.9546 12.2642 15.2246 12.2642C14.7485 12.2642 14.3613 12.1548 14.0635 11.9358C13.7656 11.717 13.6167 11.3762 13.6167 10.9141C13.6167 10.3135 13.8589 9.8894 14.3433 9.64209C14.8276 9.39502 15.7964 9.25391 16.5225 9.27124C17.2485 9.28857 17.4395 9.75586 17.4395 10.0786L17.4395 11.2385L17.4395 11.2383Z" fill="#333333" fill-opacity="1.000000" fill-rule="evenodd"/>
	</g>
</svg>
