<svg width="24.000000" height="24.000000" viewBox="0 0 24 24" fill="none" xmlns="http://www.w3.org/2000/svg" xmlns:xlink="http://www.w3.org/1999/xlink">
	<desc>
			Created with Pixso.
	</desc>
	<defs>
		<clipPath id="clip1028_3221">
			<rect id="star (1) 4" width="24.000000" height="24.000000" fill="white" fill-opacity="0"/>
		</clipPath>
	</defs>
	<rect id="star (1) 4" width="24.000000" height="24.000000" fill="#FFFFFF" fill-opacity="0"/>
	<g clip-path="url(#clip1028_3221)">
		<path id="Vector" d="M21.39 11.6001C21.6647 11.3193 21.856 10.9675 21.9425 10.5845C22.0291 10.2012 22.0074 9.80151 21.88 9.42993C21.7604 9.05737 21.5387 8.72559 21.2399 8.4729C20.9411 8.21997 20.5773 8.05615 20.19 8L15.9 7.34009C15.88 7.33423 15.8615 7.32397 15.8459 7.3103C15.8304 7.29639 15.8181 7.2793 15.81 7.26001L13.93 3.26001C13.7651 2.8855 13.4949 2.56689 13.1522 2.34326C12.8096 2.11938 12.4092 2.00024 12 2C11.5955 1.99829 11.1991 2.11353 10.8585 2.33179C10.5179 2.55005 10.2476 2.86182 10.08 3.22998L8.20001 7.22998C8.18976 7.24951 8.17554 7.2666 8.15833 7.28052C8.14111 7.29419 8.12128 7.3042 8.09998 7.31006L3.82001 8C3.43207 8.05786 3.06781 8.22217 2.7677 8.47461C2.46759 8.72705 2.24335 9.05786 2.12 9.42993C1.99731 9.80298 1.979 10.2021 2.06714 10.5847C2.15533 10.9673 2.3465 11.3184 2.62 11.6001L5.77997 14.8501C5.78912 14.8704 5.79382 14.8926 5.79382 14.915C5.79382 14.9375 5.78912 14.9595 5.77997 14.98L5.03998 19.52C4.97119 19.9153 5.01605 20.3223 5.16931 20.6931C5.32257 21.064 5.578 21.3838 5.90582 21.6152C6.23364 21.8467 6.62048 21.9805 7.0213 22.0007C7.42212 22.021 7.82043 21.9272 8.16998 21.73L11.9 19.6599C11.9185 19.6504 11.9391 19.6453 11.96 19.6453C11.9809 19.6453 12.0015 19.6504 12.02 19.6599L15.75 21.73C16.1 21.9229 16.4973 22.0134 16.8963 21.9912C17.2953 21.969 17.6801 21.835 18.0066 21.6045C18.3331 21.374 18.5881 21.0564 18.7426 20.6877C18.897 20.3191 18.9446 19.9143 18.88 19.52L18.19 15C18.1794 14.9817 18.174 14.9612 18.174 14.9399C18.174 14.9189 18.1794 14.8982 18.19 14.8801L21.39 11.6001Z" fill="#FF7F4D" fill-opacity="1.000000" fill-rule="nonzero"/>
	</g>
</svg>
