<svg width="24.000000" height="24.000000" viewBox="0 0 24 24" fill="none" xmlns="http://www.w3.org/2000/svg" xmlns:xlink="http://www.w3.org/1999/xlink">
	<desc>
			Created with Pixso.
	</desc>
	<defs>
		<clipPath id="clip9_7512">
			<rect id="menu 1" width="24.000000" height="24.000000" fill="white" fill-opacity="0"/>
		</clipPath>
	</defs>
	<rect id="menu 1" width="24.000000" height="24.000000" fill="#FFFFFF" fill-opacity="0"/>
	<g clip-path="url(#clip9_7512)">
		<path id="Vector" d="M3 11L10 11C10.2652 11 10.5196 10.8945 10.7071 10.707C10.8947 10.5195 11 10.2651 11 10L11 3C11 2.73486 10.8947 2.48047 10.7071 2.29297C10.5196 2.10547 10.2652 2 10 2L3 2C2.7348 2 2.48041 2.10547 2.29291 2.29297C2.10535 2.48047 2 2.73486 2 3L2 10C2 10.2651 2.10535 10.5195 2.29291 10.707C2.48041 10.8945 2.7348 11 3 11ZM4 4L9 4L9 9L4 9L4 4Z" fill="#3F51B5" fill-opacity="1.000000" fill-rule="nonzero"/>
		<path id="Vector" d="M14 11L21 11C21.2652 11 21.5196 10.8945 21.7071 10.707C21.8947 10.5195 22 10.2651 22 10L22 3C22 2.73486 21.8947 2.48047 21.7071 2.29297C21.5196 2.10547 21.2652 2 21 2L14 2C13.7348 2 13.4804 2.10547 13.2929 2.29297C13.1053 2.48047 13 2.73486 13 3L13 10C13 10.2651 13.1053 10.5195 13.2929 10.707C13.4804 10.8945 13.7348 11 14 11ZM15 4L20 4L20 9L15 9L15 4Z" fill="#3F51B5" fill-opacity="1.000000" fill-rule="nonzero"/>
		<path id="Vector" d="M3 22L10 22C10.2652 22 10.5196 21.8945 10.7071 21.707C10.8947 21.5195 11 21.2651 11 21L11 14C11 13.7349 10.8947 13.4805 10.7071 13.293C10.5196 13.1055 10.2652 13 10 13L3 13C2.7348 13 2.48041 13.1055 2.29291 13.293C2.10535 13.4805 2 13.7349 2 14L2 21C2 21.2651 2.10535 21.5195 2.29291 21.707C2.48041 21.8945 2.7348 22 3 22ZM4 15L9 15L9 20L4 20L4 15Z" fill="#3F51B5" fill-opacity="1.000000" fill-rule="nonzero"/>
		<path id="Vector" d="M14 22L21 22C21.2652 22 21.5196 21.8945 21.7071 21.707C21.8947 21.5195 22 21.2651 22 21L22 14C22 13.7349 21.8947 13.4805 21.7071 13.293C21.5196 13.1055 21.2652 13 21 13L14 13C13.7348 13 13.4804 13.1055 13.2929 13.293C13.1053 13.4805 13 13.7349 13 14L13 21C13 21.2651 13.1053 21.5195 13.2929 21.707C13.4804 21.8945 13.7348 22 14 22ZM15 15L20 15L20 20L15 20L15 15Z" fill="#3F51B5" fill-opacity="1.000000" fill-rule="nonzero"/>
	</g>
</svg>
