<svg width="24.000000" height="24.000000" viewBox="0 0 24 24" fill="none" xmlns="http://www.w3.org/2000/svg" xmlns:xlink="http://www.w3.org/1999/xlink">
	<desc>
			Created with Pixso.
	</desc>
	<defs/>
	<path id="Vector" d="M5 2L19 2C19.2653 2 19.5195 2.10547 19.7072 2.29297C19.8947 2.48047 20 2.73486 20 3L20 22.1431C20.0001 22.2324 19.9762 22.3203 19.9309 22.3972C19.8855 22.4744 19.8203 22.5378 19.7422 22.5811C19.6639 22.6243 19.5756 22.646 19.4862 22.6436C19.3967 22.6409 19.3097 22.6145 19.234 22.5669L12 18.03L4.76599 22.5659C4.69031 22.6135 4.60339 22.6399 4.51416 22.6423C4.4248 22.645 4.33643 22.6235 4.2583 22.5803C4.18005 22.5371 4.11487 22.4739 4.06946 22.397C4.02405 22.3201 4.00012 22.2324 4 22.1431L4 3C4 2.73486 4.10535 2.48047 4.29285 2.29297C4.48047 2.10547 4.73474 2 5 2ZM18 4L6 4L6 19.4319L12 15.6709L18 19.4319L18 4Z" fill="#3F51B5" fill-opacity="1.000000" fill-rule="nonzero"/>
</svg>
