<svg width="20.047279" height="20.053955" viewBox="0 0 20.0473 20.054" fill="none" xmlns="http://www.w3.org/2000/svg" xmlns:xlink="http://www.w3.org/1999/xlink">
	<desc>
			Created with Pixso.
	</desc>
	<defs/>
	<path id="circle2017" d="M8.99805 0C4.03933 0 0 4.03931 0 8.99805C0 13.9568 4.03933 18.0039 8.99805 18.0039C11.1161 18.0039 13.064 17.2617 14.6035 16.0293L18.3516 19.7754C18.5407 19.9568 18.7933 20.0566 19.0553 20.054C19.3173 20.0513 19.5679 19.9463 19.7533 19.761C19.9386 19.5759 20.0442 19.3257 20.0472 19.0637C20.0503 18.8015 19.9506 18.5488 19.7695 18.3594L16.0215 14.6113C17.2549 13.0696 17.998 11.1184 17.998 8.99805C17.998 4.03931 13.9568 0 8.99805 0ZM8.99805 2C12.8759 2 15.9961 5.12012 15.9961 8.99805C15.9961 12.876 12.8759 16.0039 8.99805 16.0039C5.12021 16.0039 2 12.876 2 8.99805C2 5.12012 5.12021 2 8.99805 2Z" fill="#3F51B5" fill-opacity="1.000000" fill-rule="nonzero"/>
</svg>
