<svg width="24.000000" height="24.000000" viewBox="0 0 24 24" fill="none" xmlns="http://www.w3.org/2000/svg" xmlns:xlink="http://www.w3.org/1999/xlink">
	<desc>
			Created with Pixso.
	</desc>
	<defs>
		<clipPath id="clip1078_6580">
			<rect id="settings" width="24.000000" height="24.000000" fill="white" fill-opacity="0"/>
		</clipPath>
	</defs>
	<g clip-path="url(#clip1078_6580)">
		<path id="coolicon" d="M13.8201 22L10.1801 22C9.71021 22 9.30359 21.6731 9.203 21.2141L8.79602 19.3301C8.25305 19.092 7.73828 18.7947 7.26099 18.4431L5.42407 19.0281C4.97607 19.1709 4.48901 18.9824 4.25403 18.575L2.43005 15.4241C2.19763 15.0166 2.27771 14.5024 2.62305 14.1851L4.0481 12.885C3.98328 12.2961 3.98328 11.7019 4.0481 11.113L2.62305 9.81592C2.27722 9.49829 2.19714 8.98364 2.43005 8.57593L4.25 5.4231C4.48499 5.01562 4.97205 4.82715 5.42004 4.96997L7.25708 5.55493C7.5011 5.37427 7.75513 5.20728 8.01807 5.05493C8.27039 4.9126 8.53003 4.78394 8.79602 4.66895L9.2041 2.78711C9.30408 2.32788 9.71021 2.00049 10.1801 2L13.8201 2C14.2898 2.00049 14.6959 2.32788 14.796 2.78711L15.208 4.66992C15.4888 4.79346 15.7623 4.93311 16.0271 5.08789C16.2739 5.23071 16.5127 5.38745 16.7421 5.55688L18.5801 4.97192C19.0277 4.82959 19.5142 5.01807 19.749 5.42505L21.5691 8.57788C21.8015 8.9856 21.7214 9.49951 21.3761 9.81689L19.951 11.1169C20.0159 11.7058 20.0159 12.3 19.951 12.8889L21.3761 14.189C21.7214 14.5066 21.8015 15.0205 21.5691 15.428L19.749 18.5811C19.5142 18.9878 19.0277 19.1763 18.5801 19.0339L16.7421 18.449C16.5095 18.6204 16.2678 18.7788 16.0181 18.9241C15.7559 19.0759 15.4855 19.2131 15.208 19.335L14.796 21.2141C14.6956 21.6726 14.2896 21.9995 13.8201 22ZM7.62 16.229L8.44006 16.8291C8.62488 16.9651 8.8175 17.0903 9.01709 17.2041C9.20471 17.3127 9.39795 17.4116 9.59607 17.5L10.5291 17.9089L10.9861 20L13.016 20L13.473 17.908L14.406 17.499C14.8134 17.3193 15.2 17.0962 15.5591 16.833L16.38 16.2329L18.421 16.8831L19.436 15.125L17.853 13.6819L17.9651 12.6699C18.0143 12.2273 18.0143 11.7805 17.9651 11.3379L17.853 10.3259L19.437 8.87988L18.421 7.12109L16.38 7.771L15.5591 7.1709C15.1998 6.90674 14.8132 6.68164 14.406 6.5L13.473 6.09106L13.016 4L10.9861 4L10.5271 6.09204L9.59607 6.5C9.39783 6.58716 9.20459 6.68481 9.01709 6.79297C8.81873 6.90625 8.62708 7.03076 8.44299 7.16602L7.62207 7.76611L5.58203 7.11597L4.56506 8.87988L6.14807 10.321L6.03601 11.334C5.98682 11.7766 5.98682 12.2234 6.03601 12.666L6.14807 13.678L4.56506 15.1211L5.58008 16.8789L7.62 16.229ZM11.9961 16C9.78687 16 7.99609 14.2092 7.99609 12C7.99609 9.79077 9.78687 8 11.9961 8C14.2052 8 15.9961 9.79077 15.9961 12C15.9933 14.208 14.204 15.9973 11.9961 16ZM11.9961 10C10.9034 10.0012 10.0139 10.8789 9.99829 11.9714C9.98267 13.0637 10.8466 13.9668 11.9387 13.999C13.0309 14.0315 13.9469 13.1814 13.9961 12.0901L13.9961 12.49L13.9961 12C13.9961 10.8955 13.1006 10 11.9961 10Z" fill="#3F51B5" fill-opacity="1.000000" fill-rule="nonzero"/>
	</g>
</svg>
