<svg width="56.000000" height="56.000000" viewBox="0 0 56 56" fill="none" xmlns="http://www.w3.org/2000/svg" xmlns:xlink="http://www.w3.org/1999/xlink">
	<desc>
			Created with Pixso.
	</desc>
	<defs>
		<clipPath id="clip1089_7451">
			<rect id="user / user" width="56.000000" height="56.000000" fill="white" fill-opacity="0"/>
		</clipPath>
	</defs>
	<g clip-path="url(#clip1089_7451)">
		<path id="coolicon" d="M28 7C21.5566 7 16.3333 12.2234 16.3333 18.6666C16.3333 25.1101 21.5566 30.3333 28 30.3333C34.4434 30.3333 39.6665 25.1101 39.6665 18.6666C39.6665 12.2234 34.4434 7 28 7ZM35 18.6666C35 22.5327 31.866 25.6667 28 25.6667C24.134 25.6667 21 22.5327 21 18.6666C21 14.8007 24.134 11.6666 28 11.6666C31.866 11.6666 35 14.8007 35 18.6666ZM9.33325 51.3333C9.33325 46.3826 11.2998 41.6348 14.8005 38.134C18.3013 34.6333 23.0493 32.6667 28 32.6667C32.9507 32.6667 37.6985 34.6333 41.1992 38.134C44.7 41.6348 46.6665 46.3826 46.6665 51.3333L42 51.3333C42 47.6204 40.5249 44.0593 37.8994 41.4338C35.2739 38.8083 31.7129 37.3333 28 37.3333C24.2869 37.3333 20.7258 38.8083 18.1003 41.4338C15.4749 44.0593 14 47.6204 14 51.3333L9.33325 51.3333Z" fill="#3F51B5" fill-opacity="1.000000" fill-rule="evenodd"/>
	</g>
</svg>
