<svg width="24.000000" height="24.000000" viewBox="0 0 24 24" fill="none" xmlns="http://www.w3.org/2000/svg" xmlns:xlink="http://www.w3.org/1999/xlink">
	<desc>
			Created with Pixso.
	</desc>
	<defs>
		<clipPath id="clip1078_6577">
			<rect id="wallet" width="24.000000" height="24.000000" fill="white" fill-opacity="0"/>
		</clipPath>
	</defs>
	<rect id="wallet" width="24.000000" height="24.000000" fill="#FFFFFF" fill-opacity="0"/>
	<g clip-path="url(#clip1078_6577)">
		<path id="Vector" d="M20.5 5L20.5 7.28003C21.09 7.63 21.5 8.26001 21.5 9L21.5 15C21.5 15.74 21.09 16.37 20.5 16.72L20.5 19C20.5 20.1 19.6 21 18.5 21L4.5 21C3.39001 21 2.5 20.1 2.5 19L2.5 5C2.5 3.90002 3.39001 3 4.5 3L18.5 3C19.6 3 20.5 3.90002 20.5 5ZM4.5 5L4.5 19L18.5 19L18.5 17L12.5 17C11.4 17 10.5 16.1 10.5 15L10.5 9C10.5 7.90002 11.4 7 12.5 7L18.5 7L18.5 5L4.5 5ZM12.5 15L19.5 15L19.5 9L12.5 9L12.5 15ZM17 12C17 12.8284 16.3284 13.5 15.5 13.5C14.6716 13.5 14 12.8284 14 12C14 11.1716 14.6716 10.5 15.5 10.5C16.3284 10.5 17 11.1716 17 12Z" fill="#3F51B5" fill-opacity="1.000000" fill-rule="evenodd"/>
	</g>
</svg>
